<?xml version="1.0" encoding="utf-8"?>
<!-- Generator: Adobe Illustrator 21.1.0, SVG Export Plug-In . SVG Version: 6.00 Build 0)  -->
<svg version="1.1" id="圖層_1" xmlns="http://www.w3.org/2000/svg" xmlns:xlink="http://www.w3.org/1999/xlink" x="0px" y="0px"
	 viewBox="0 0 10.1 10.3" style="enable-background:new 0 0 10.1 10.3;" xml:space="preserve">
<style type="text/css">
	.st0{fill:none;stroke:#3D43C6;stroke-width:0.67;stroke-miterlimit:10;}
</style>
<title>0</title>
<path class="st0" d="M1.1,0.3h2.6c0.4,0,0.8,0.3,0.8,0.8v2.6c0,0.4-0.3,0.8-0.8,0.8H1.1c-0.4,0-0.8-0.3-0.8-0.8V1.1
	C0.3,0.7,0.7,0.3,1.1,0.3z"/>
<path class="st0" d="M6.4,0.3H9c0.4,0,0.8,0.3,0.8,0.8v2.6c0,0.4-0.3,0.8-0.8,0.8H6.4C6,4.5,5.6,4.1,5.6,3.7V1.1
	C5.6,0.7,6,0.3,6.4,0.3z"/>
<path class="st0" d="M1.1,5.8h2.6c0.4,0,0.8,0.3,0.8,0.8v2.6c0,0.4-0.3,0.8-0.8,0.8H1.1c-0.4,0-0.8-0.3-0.8-0.8V6.6
	C0.3,6.2,0.7,5.8,1.1,5.8z"/>
<path class="st0" d="M6.4,5.8H9c0.4,0,0.8,0.3,0.8,0.8v2.6C9.8,9.6,9.4,10,9,10H6.4C6,10,5.6,9.6,5.6,9.2V6.6C5.6,6.2,6,5.8,6.4,5.8
	z"/>
</svg>
