<?xml version="1.0" encoding="utf-8"?>
<!-- Generator: Adobe Illustrator 24.1.3, SVG Export Plug-In . SVG Version: 6.00 Build 0)  -->
<svg version="1.1" id="圖層_1" xmlns="http://www.w3.org/2000/svg" xmlns:xlink="http://www.w3.org/1999/xlink" x="0px" y="0px"
	 viewBox="0 0 26 26" style="enable-background:new 0 0 26 26;" xml:space="preserve">
<style type="text/css">
	.st0{fill:#FDA92E;}
	.st1{fill:#BD5600;}
	.st2{fill:#F77E00;}
	.st3{fill:#F37E00;}
	.st4{fill:#FFE065;}
	.st5{fill:#00A9FF;}
	.st6{fill:none;stroke:#FFFFFF;stroke-miterlimit:10;}
	.st7{fill:#FFCE00;}
	.st8{fill:#FDBA12;}
	.st9{fill:#555A66;}
	.st10{fill:#333940;}
	.st11{fill:#FF432E;}
	.st12{fill:#E9EDF5;}
	.st13{fill:#FF6C52;}
	.st14{fill:#FFFFFF;}
	.st15{fill:#82BAFF;}
	.st16{fill:#549CFF;}
</style>
<g>
	<path class="st0" d="M26,13.1c0,7.2-5.9,13-13.1,12.9c-1,0-1.9-0.1-2.9-0.3c-1.2-0.3-2.3-0.7-3.3-1.2c-0.9-0.5-1.7-1.1-2.5-1.8
		c-0.2-0.2-0.5-0.4-0.7-0.6c-1-1-1.7-2.1-2.4-3.4c-0.1-0.2-0.2-0.5-0.3-0.7c-0.6-1.5-1-3.2-1-5c0-0.2,0-0.3,0-0.5
		C0.3,5.5,6,0,13.1,0c1.7,0,3.4,0.4,4.9,1c0.3,0.1,0.6,0.2,0.9,0.4C20,2,21.1,2.8,22.1,3.7c0.2,0.2,0.4,0.4,0.6,0.6
		C23.4,5.1,24,6,24.5,7c0.5,1,0.9,2,1.2,3.1c0.2,0.8,0.3,1.6,0.3,2.5C26,12.7,26,12.9,26,13.1z"/>
	<path class="st1" d="M23.4,13c0,0.2,0,0.3,0,0.5c-0.3,5.5-4.9,9.9-10.4,9.9c-5.6,0-10.1-4.4-10.3-10c0-0.2,0-0.3,0-0.5
		C2.6,7.2,7.3,2.6,13,2.6C18.8,2.6,23.4,7.3,23.4,13z"/>
	<path class="st2" d="M23.4,13.5c-0.3,5.5-4.9,9.9-10.4,9.9c-0.1,0-0.2,0-0.4,0c-1.2,0-2.4-0.3-3.5-0.8c-1.1-0.4-2.1-1.1-3-1.9
		c-0.2-0.2-0.4-0.4-0.6-0.6c-0.9-1-1.7-2.1-2.2-3.4c-0.1-0.3-0.2-0.6-0.3-0.9c-0.2-0.8-0.3-1.5-0.4-2.4C2.9,7.9,7.5,3.5,13,3.6
		c0.7,0,1.4,0.1,2.1,0.2c0.3,0.1,0.7,0.2,1,0.3c1.3,0.4,2.6,1.1,3.6,2c0.2,0.2,0.4,0.4,0.7,0.6c0.8,0.8,1.5,1.8,2,2.8
		c0.5,1,0.8,2.1,1,3.3C23.3,13,23.4,13.3,23.4,13.5z"/>
	<g>
		<g>
			<g>
				<path class="st3" d="M14.4,18.9l0,1.7l-2.2,0l0-1.6c-1.6-0.1-3.1-0.5-4-1.1l1.2-2.7c1,0.6,2.4,1,3.6,1c1,0,1.4-0.2,1.4-0.6
					c0-1.4-6-0.3-6-4.3c0-1.8,1.3-3.2,3.8-3.6l0-1.7l2.2,0l0,1.7c1.2,0.1,2.3,0.4,3.2,0.9l-1.1,2.7c-1.1-0.5-2.1-0.8-3-0.8
					c-1.1,0-1.4,0.3-1.4,0.7c0,1.3,6,0.2,6,4.3C18.1,17,16.8,18.5,14.4,18.9z"/>
			</g>
		</g>
		<g>
			<path class="st4" d="M14.4,18.3l0,1.7l-2.2,0l0-1.6c-1.6-0.1-3.1-0.5-4-1.1l1.2-2.7c1,0.6,2.4,1,3.6,1c1,0,1.4-0.2,1.4-0.6
				c0-1.4-6-0.3-6-4.3c0-1.8,1.3-3.2,3.8-3.6l0-1.7l2.2,0l0,1.7c1.2,0.1,2.3,0.4,3.2,0.9l-1.1,2.7c-1.1-0.5-2.1-0.8-3-0.8
				c-1.1,0-1.4,0.3-1.4,0.7c0,1.3,6,0.2,6,4.3C18,16.5,16.8,17.9,14.4,18.3z"/>
		</g>
	</g>
</g>
</svg>
