<?xml version="1.0" encoding="utf-8"?>
<!-- Generator: Adobe Illustrator 24.1.3, SVG Export Plug-In . SVG Version: 6.00 Build 0)  -->
<svg version="1.1" id="圖層_1" xmlns="http://www.w3.org/2000/svg" xmlns:xlink="http://www.w3.org/1999/xlink" x="0px" y="0px"
	 viewBox="0 0 38 34" style="enable-background:new 0 0 38 34;" xml:space="preserve">
<style type="text/css">
	.st0{fill:url(#SVGID_1_);}
	.st1{fill:url(#SVGID_2_);}
</style>
<g>
	
		<linearGradient id="SVGID_1_" gradientUnits="userSpaceOnUse" x1="15.75" y1="35.9136" x2="15.75" y2="9.130004e-02" gradientTransform="matrix(1 0 0 -1 0 36)">
		<stop  offset="0" style="stop-color:#2E7BFF"/>
		<stop  offset="1" style="stop-color:#7C4BFF"/>
	</linearGradient>
	<path class="st0" d="M24.3,26.3c-0.4,0-0.8-0.1-1.1-0.1c0,0.3,0,0.6,0,0.9c-5,0-9.9,0-14.8,0c0-6.7,0-13.4,0-20.1c5,0,9.9,0,14.8,0
		c0,0.3,0,0.6,0,0.9c0.4-0.1,0.8-0.1,1.1-0.1c0.4,0,0.8,0.1,1.2,0.1c0-1.3,0-2.6,0-3.9C25.5,1.5,24,0,21.6,0c-3.9,0-7.8,0-11.7,0
		C7.4,0,6,1.5,6,4c0,5.2,0,10.3,0,15.4c0,3.6,0,7.2,0,10.8C6,32.5,7.5,34,9.8,34c3.9,0,7.9,0,11.9,0c2.3,0,3.9-1.5,3.9-3.9
		c0-1.3,0-2.6,0-4C25.1,26.2,24.7,26.3,24.3,26.3z M13.4,3c1.6,0,3.2,0,4.8,0c0.3,0,0.6,0.1,0.6,0.4c0,0.4-0.3,0.5-0.6,0.5
		c-0.8,0-1.6,0-2.4,0s-1.6,0-2.4,0c-0.3,0-0.6-0.1-0.6-0.5C12.8,3.1,13.1,3,13.4,3z M15.7,31.7c-0.6,0-1.1-0.5-1.1-1.1
		c0-0.6,0.5-1.1,1.1-1.1s1.1,0.5,1.1,1.1C16.9,31.2,16.4,31.7,15.7,31.7z"/>
	
		<linearGradient id="SVGID_2_" gradientUnits="userSpaceOnUse" x1="24.42" y1="35.9136" x2="24.42" y2="9.149840e-02" gradientTransform="matrix(1 0 0 -1 0 36)">
		<stop  offset="0" style="stop-color:#2E7BFF"/>
		<stop  offset="1" style="stop-color:#7C4BFF"/>
	</linearGradient>
	<path class="st1" d="M24.4,9.4c-4.2,0-7.6,3.4-7.6,7.6c0,1.6,0.5,3.1,1.4,4.3l-0.8,2.1l2.3-0.5c1.3,1,2.9,1.7,4.7,1.7
		c4.2,0,7.6-3.4,7.6-7.6C32,12.8,28.6,9.4,24.4,9.4z M20.4,18c-0.5,0-1-0.4-1-1c0-0.5,0.4-1,1-1c0.5,0,1,0.4,1,1
		C21.4,17.5,20.9,18,20.4,18z M24.6,18c-0.5,0-1-0.4-1-1c0-0.5,0.4-1,1-1c0.5,0,1,0.4,1,1C25.5,17.5,25.1,18,24.6,18z M28.7,18
		c-0.5,0-1-0.4-1-1c0-0.5,0.4-1,1-1s1,0.4,1,1C29.6,17.5,29.2,18,28.7,18z"/>
</g>
</svg>
