<svg id="圖層_1" data-name="圖層 1" xmlns="http://www.w3.org/2000/svg" viewBox="0 0 21.04 21.04"><defs><style>.cls-1{fill:#b3b3b3;}</style></defs><title>0</title><path class="cls-1" d="M5.11,1.49A10.53,10.53,0,1,1,1.48,15.92,10.53,10.53,0,0,1,5.11,1.49Zm8.62,14.37a6.23,6.23,0,1,0-8.54-2.12A6.21,6.21,0,0,0,13.73,15.86ZM5.37,5.15,8.16,3.47C7.85,3,7.57,2.45,7.24,2a.54.54,0,0,0-.5-.16c-.74.4-1.45.84-2.16,1.3a.45.45,0,0,0-.16.42C4.72,4.11,5.07,4.65,5.37,5.15Zm7.51,12.42c.3.5.6,1,.95,1.53a.46.46,0,0,0,.47.11c.74-.4,1.45-.84,2.16-1.3a.47.47,0,0,0,.15-.42c-.3-.56-.64-1.1-.95-1.6Zm-8.29.36a8.73,8.73,0,0,0,2.85,1.55l1-1.81L5.59,16.11ZM20,12l-.08-3.24-2.16,0,0,3.24Zm-16.72.34L3.22,9.05,1,9.09l.08,3.25ZM15.45,4.93,16.5,3,13.64,1.48l-1,1.9Z"/><path class="cls-1" d="M9.24,13.63,7.91,13c-.45-.21-.3-.51-.15-.85s.33-.39.67-.26a13.45,13.45,0,0,0,1.74.54c.38.1.77.09.92-.4s-.14-.65-.48-.83a14.16,14.16,0,0,1-1.26-.72,1.65,1.65,0,0,1-.75-2,1.79,1.79,0,0,1,1.79-1.35h.46l.28-.93c1,.09,1,.09.86,1.18l1.09.52c.42.2.37.47.2.83s-.35.43-.71.29a11.63,11.63,0,0,0-1.38-.44c-.39-.09-.82-.18-1,.33s.21.65.55.83.77.39,1.13.62a1.7,1.7,0,0,1,.82,2A1.8,1.8,0,0,1,11,13.81l-.6,0-.27.95-1-.22Z"/></svg>