<?xml version="1.0" encoding="utf-8"?>
<!-- Generator: Adobe Illustrator 21.1.0, SVG Export Plug-In . SVG Version: 6.00 Build 0)  -->
<svg version="1.1" id="圖層_1" xmlns="http://www.w3.org/2000/svg" xmlns:xlink="http://www.w3.org/1999/xlink" x="0px" y="0px"
	 viewBox="0 0 41.9 41.9" style="enable-background:new 0 0 41.9 41.9;" xml:space="preserve">
<style type="text/css">
	.st0{fill:#4B51E6;}
</style>
<path id="形狀_515" class="st0" d="M9.1,10.6h23.8c0,0.2,0,0.3,0,0.5c0,8,0,16,0,24c0,2.5-1.7,4.3-4.1,4.3c-5.2,0-10.3,0-15.5,0
	c-2.4,0-4.1-1.8-4.1-4.3c0-8,0-16,0-24L9.1,10.6L9.1,10.6z M19,22l0.2,0.1v0.5c0,2.6,0,5.2,0,7.8c0,1.1,0.6,1.7,1.6,1.6
	c0.9,0,1.5-0.7,1.5-1.8c0-2.6,0-5.3,0-7.9v-0.5c0.5,0.4,0.9,0.8,1.3,1.3c0.7,0.7,1.6,0.7,2.2,0.1c0.6-0.7,0.6-1.7,0-2.3
	c-0.8-0.9-1.7-1.7-2.5-2.6c-1.5-1.5-3.5-1.5-5,0c-0.8,0.8-1.6,1.7-2.4,2.5c-0.7,0.7-0.7,1.7-0.1,2.4c0.6,0.7,1.6,0.6,2.3-0.1
	C18.4,22.8,18.7,22.4,19,22L19,22z M6.1,18.2c-1.3-0.5-2.5-1.4-3.3-2.6C0.9,13,0.5,10,1.9,7s3.8-4.6,7-4.6c8-0.1,16,0,24,0
	c3.7,0,6.8,2.7,7.7,6.6c0.8,3.7-1,7.4-4.3,9.1c-0.1,0.1-0.3,0.1-0.5,0.2v-0.7c0-2.3,0-4.6,0-7c0-1.8-0.6-2.5-2.5-3
	c-0.3-0.1-0.5-0.1-0.8-0.1c-7.7,0-15.5,0-23.2,0c-0.1,0-0.2,0-0.2,0c-2,0-2.9,1-3,3.2c-0.1,2.3,0,4.6,0,7L6.1,18.2L6.1,18.2z"/>
</svg>
