<svg xmlns="http://www.w3.org/2000/svg" viewBox="0 0 22.05 16.02"><defs><style>.cls-1{fill:#3d4cce;}</style></defs><title>slot_內頁</title><g id="home"><path class="cls-1" d="M12.08,6.8h1.6c.32,0,.4.08.4.4a3.53,3.53,0,0,1,0,.46c0,.25-.1.35-.35.35H11.65V9.25h2.07c.26,0,.36.11.36.36a4.17,4.17,0,0,1,0,.5c0,.26-.09.36-.36.36H11.64V12c0,.25-.11.35-.36.36h-.49c-.26,0-.36-.11-.37-.37V10.48h-2c-.31,0-.4-.09-.41-.39V9.6c0-.24.12-.35.37-.35h2.07V8H8.34C8.08,8,8,7.91,8,7.64V7.15c0-.25.11-.35.36-.35H10L9.8,6.6,8.18,4.82c-.24-.26-.24-.38,0-.63l.26-.29c.17-.18.3-.17.49,0l1.47,1.63.63.68.85-.93,1.25-1.38c.22-.24.33-.24.55,0l.24.27a.36.36,0,0,1,0,.58L12.27,6.58Z"/><path class="cls-1" d="M9.49,14.8H1.85a.62.62,0,0,1-.62-.66c0-.83,0-1.66,0-2.49a.26.26,0,0,1,.14-.2A3.68,3.68,0,0,0,3.52,7,3.51,3.51,0,0,0,1.45,4.63a.31.31,0,0,1-.23-.34c0-.76,0-1.53,0-2.29,0-.53.23-.76.76-.76h7.5V0H1.12A3.29,3.29,0,0,0,.68.16a1.31,1.31,0,0,0-.68,1v4a1,1,0,0,0,.74.6A2.43,2.43,0,0,1,2.46,8.07,2.45,2.45,0,0,1,.7,10.37.93.93,0,0,0,0,11v4a5.1,5.1,0,0,0,.26.58A1.34,1.34,0,0,0,1,16H9.49Z"/><path class="cls-1" d="M21.35,5.67a1.08,1.08,0,0,0,.7-.55V1a1.35,1.35,0,0,0-.72-.86L20.93,0H12.55V1.24h7.52c.42,0,.65.15.74.46a1.14,1.14,0,0,1,0,.26c0,.8,0,1.59,0,2.39a.23.23,0,0,1-.18.26,3.68,3.68,0,0,0,0,6.81.23.23,0,0,1,.17.25c0,.79,0,1.58,0,2.37,0,.52-.25.76-.77.76H12.55V16h8.51a2.42,2.42,0,0,0,.55-.3,5.4,5.4,0,0,0,.44-.69V10.94a.94.94,0,0,0-.66-.56,2.45,2.45,0,0,1,0-4.71Z"/></g></svg>