<?xml version="1.0" encoding="utf-8"?>
<!-- Generator: Adobe Illustrator 24.1.3, SVG Export Plug-In . SVG Version: 6.00 Build 0)  -->
<svg version="1.1" id="圖層_1" xmlns="http://www.w3.org/2000/svg" xmlns:xlink="http://www.w3.org/1999/xlink" x="0px" y="0px"
	 viewBox="0 0 20 20" style="enable-background:new 0 0 20 20;" xml:space="preserve">
<style type="text/css">
	.st0{fill:url(#SVGID_1_);}
	.st1{fill:url(#SVGID_2_);}
	.st2{fill:url(#SVGID_3_);}
	.st3{fill:url(#SVGID_4_);}
	.st4{fill:url(#SVGID_5_);}
	.st5{fill:url(#SVGID_6_);}
	.st6{fill:url(#SVGID_7_);}
	.st7{fill:url(#SVGID_8_);}
	.st8{fill:#E11515;}
	.st9{fill:url(#SVGID_9_);}
	.st10{fill:url(#SVGID_10_);}
	.st11{fill:url(#SVGID_11_);}
	.st12{fill:url(#SVGID_12_);}
	.st13{fill:#FFFFFF;}
</style>
<g>
	<g>
		<path class="st13" d="M19.38,2.43l-1.81-1.81c-0.83-0.83-2.18-0.83-3,0C13.78,1.4,1.87,13.31,1.08,14.11
			c-0.08,0.08-0.14,0.2-0.16,0.31l-0.91,4.89c-0.04,0.19,0.03,0.38,0.16,0.52c0.14,0.14,0.33,0.2,0.52,0.16l4.89-0.91
			c0.11-0.02,0.22-0.08,0.31-0.16L19.38,5.44C20.21,4.61,20.21,3.26,19.38,2.43z M1.32,18.68l0.55-2.96l2.41,2.41L1.32,18.68z
			 M5.48,17.68l-3.16-3.16L13.85,2.99l3.16,3.16L5.48,17.68z M18.55,4.61l-0.71,0.71l-3.16-3.16l0.71-0.71
			c0.37-0.37,0.98-0.37,1.35,0l1.81,1.81C18.92,3.63,18.92,4.24,18.55,4.61z"/>
	</g>
</g>
</svg>
