<?xml version="1.0" encoding="utf-8"?>
<!-- Generator: Adobe Illustrator 21.1.0, SVG Export Plug-In . SVG Version: 6.00 Build 0)  -->
<svg version="1.1" id="home" xmlns="http://www.w3.org/2000/svg" xmlns:xlink="http://www.w3.org/1999/xlink" x="0px" y="0px"
	 viewBox="0 0 22.5 23" style="enable-background:new 0 0 22.5 23;" xml:space="preserve">
<style type="text/css">
	.st0{fill:#4E59E7;}
</style>
<path class="st0" d="M10.1,2v8.1H2V2H10.1 M10.1,0H2C0.9,0,0,0.9,0,2v8.1c0,1.1,0.9,2,2,2h8.1c1.1,0,2-0.9,2-2V2
	C12.1,0.9,11.2,0,10.1,0z"/>
<path class="st0" d="M20.5,2v8.1h-8.1V2H20.5 M20.5,0h-8.1c-1.1,0-2,0.9-2,2v8.1c0,1.1,0.9,2,2,2h8.1c1.1,0,2-0.9,2-2V2
	C22.5,0.9,21.7,0,20.5,0z"/>
<path class="st0" d="M10.1,12.9V21H2v-8.1H10.1 M10.1,10.9H2c-1.1,0-2,0.9-2,2V21c0,1.1,0.9,2,2,2h8.1c1.1,0,2-0.9,2-2v-8.1
	C12.1,11.8,11.2,10.9,10.1,10.9z"/>
<path class="st0" d="M20.5,12.9V21h-8.1v-8.1H20.5 M20.5,10.9h-8.1c-1.1,0-2,0.9-2,2V21c0,1.1,0.9,2,2,2h8.1c1.1,0,2-0.9,2-2v-8.1
	C22.5,11.8,21.7,10.9,20.5,10.9z"/>
</svg>
