<?xml version="1.0" encoding="utf-8"?>
<!-- Generator: Adobe Illustrator 24.1.3, SVG Export Plug-In . SVG Version: 6.00 Build 0)  -->
<svg version="1.1" id="圖層_1" xmlns="http://www.w3.org/2000/svg" xmlns:xlink="http://www.w3.org/1999/xlink" x="0px" y="0px"
	 viewBox="0 0 21.3 20" style="enable-background:new 0 0 21.3 20;" xml:space="preserve">
<style type="text/css">
	.st0{fill:#4A59ED;}
</style>
<g>
	<path class="st0" d="M13.2,10.8c-0.5,0-0.8,0.4-0.8,0.8V15c0,0.5-0.4,0.8-0.8,0.8H9V3.3C9,2.6,8.6,2,7.9,1.7L7.6,1.7h3.9
		c0.5,0,0.8,0.4,0.8,0.8V5c0,0.5,0.4,0.8,0.8,0.8S14,5.5,14,5V2.5C14,1.1,12.9,0,11.5,0H2.5c0,0-0.1,0-0.1,0c0,0-0.1,0-0.1,0
		C1.4,0,0.7,0.8,0.7,1.7v15c0,0.7,0.4,1.4,1.1,1.6l5,1.7C7,20,7.2,20,7.3,20C8.2,20,9,19.3,9,18.3v-0.8h2.5c1.4,0,2.5-1.1,2.5-2.5
		v-3.3C14,11.2,13.6,10.8,13.2,10.8z"/>
	<path class="st0" d="M20.4,7.7l-3.3-3.3c-0.2-0.2-0.6-0.3-0.9-0.2c-0.3,0.1-0.5,0.4-0.5,0.8v2.5h-3.3c-0.5,0-0.8,0.4-0.8,0.8
		s0.4,0.8,0.8,0.8h3.3v2.5c0,0.3,0.2,0.6,0.5,0.8c0.3,0.1,0.7,0.1,0.9-0.2l3.3-3.3C20.7,8.6,20.7,8.1,20.4,7.7z"/>
</g>
</svg>
