<?xml version="1.0" encoding="utf-8"?>
<!-- Generator: Adobe Illustrator 21.1.0, SVG Export Plug-In . SVG Version: 6.00 Build 0)  -->
<svg version="1.1" id="老虎機" xmlns="http://www.w3.org/2000/svg" xmlns:xlink="http://www.w3.org/1999/xlink" x="0px" y="0px"
	 viewBox="0 0 11.4 10" style="enable-background:new 0 0 11.4 10;" xml:space="preserve">
<style type="text/css">
	.st0{fill:#3D43C6;}
</style>
<title>0</title>
<path class="st0" d="M5.7,10c-0.1,0-0.2,0-0.4-0.1c-0.7-0.3-1.3-0.6-1.9-1L3.2,8.8C2.9,8.6,2.7,8.4,2.4,8.2C2.2,8,2,7.8,1.8,7.5
	L1.6,7.4C0.9,6.7,0.4,5.8,0.2,4.9C0.1,4.6,0,4.3,0,4c0-0.1,0-0.2,0-0.3s0-0.3,0-0.4C0,3.2,0,3,0.1,2.8c0.2-1,0.8-1.9,1.7-2.4
	C2.3,0.1,2.8,0,3.4,0l0,0c0.8,0,1.7,0.3,2.3,0.9l0.2-0.2c1.2-0.9,2.9-0.9,4.1,0c0.6,0.4,1,1,1.2,1.7c0.1,0.5,0.2,1,0.2,1.5
	c0,0.2,0,0.3,0,0.5c0,0.1,0,0.2-0.1,0.4c-0.2,0.6-0.5,1.3-0.8,1.8c-0.5,0.6-1,1.2-1.6,1.7C8.3,8.7,7.7,9.1,7,9.5L6.4,9.8L6.1,9.9
	C5.9,10,5.8,10,5.7,10z M5.6,9L5.6,9z M3.4,1C3,1,2.6,1.1,2.3,1.3C1.6,1.6,1.2,2.3,1,3C1,3.1,1,3.3,1,3.4c0,0.1,0,0.2,0,0.3
	S1,3.9,1,4c0,0.2,0,0.4,0.1,0.6c0.2,0.8,0.7,1.5,1.2,2.1l0.1,0.1C2.7,7,2.9,7.2,3.1,7.4c0.2,0.2,0.5,0.3,0.7,0.5L4,8.1
	C4.5,8.4,5.1,8.7,5.7,9L6,8.9l0.6-0.3c0.6-0.3,1.2-0.7,1.7-1.1C8.8,7,9.3,6.5,9.7,6c0.3-0.5,0.5-1,0.7-1.5c0-0.1,0-0.1,0-0.2
	c0-0.2,0-0.3,0-0.4c0-0.4,0-0.7-0.1-1.1c-0.2-0.5-0.5-0.9-0.9-1.3c-0.9-0.6-2-0.6-2.9,0L6.3,1.7L6.1,1.8c-0.3,0.2-0.7,0.2-0.9,0
	L5.1,1.7C4.6,1.3,4,1,3.4,1L3.4,1z"/>
</svg>
