<svg id="圖層_1" data-name="圖層 1" xmlns="http://www.w3.org/2000/svg" viewBox="0 0 11.41 10.03"><defs><style>.cls-1{fill:#595757;}</style></defs><title>0</title><path class="cls-1" d="M5.7,10a.87.87,0,0,1-.36-.09,13.12,13.12,0,0,1-1.88-1l-.25-.16c-.26-.18-.52-.36-.76-.56a7.07,7.07,0,0,1-.69-.65l-.14-.14A6.11,6.11,0,0,1,.16,4.86,2.51,2.51,0,0,1,0,4c0-.09,0-.18,0-.27s0-.25,0-.37a2.33,2.33,0,0,1,.07-.53A3.47,3.47,0,0,1,1.81.4,3,3,0,0,1,3.4,0h0A3.55,3.55,0,0,1,5.71.87L5.92.7A3.42,3.42,0,0,1,10,.68,3.61,3.61,0,0,1,11.24,2.4a3.93,3.93,0,0,1,.17,1.47c0,.16,0,.31,0,.47a3.18,3.18,0,0,1-.06.37,6.53,6.53,0,0,1-.82,1.81A8.14,8.14,0,0,1,8.93,8.2,11.82,11.82,0,0,1,7,9.46l-.6.3-.34.18A.91.91,0,0,1,5.7,10ZM5.62,9h0ZM3.39,1a2.14,2.14,0,0,0-1.08.27A2.48,2.48,0,0,0,1.05,3,1.34,1.34,0,0,0,1,3.39c0,.1,0,.2,0,.3S1,3.91,1,4a1.74,1.74,0,0,0,.09.55A5.19,5.19,0,0,0,2.34,6.69l.14.14a8.21,8.21,0,0,0,.6.58c.22.18.45.34.69.5L4,8.07A11.8,11.8,0,0,0,5.7,9L6,8.87l.57-.3A9.3,9.3,0,0,0,8.29,7.42,6.66,6.66,0,0,0,9.66,6a5.28,5.28,0,0,0,.68-1.52.86.86,0,0,0,0-.17c0-.17,0-.3,0-.43a3,3,0,0,0-.11-1.1,2.64,2.64,0,0,0-.87-1.26,2.41,2.41,0,0,0-2.9,0l-.2.16-.16.14a.69.69,0,0,1-.94,0l-.1-.09A2.56,2.56,0,0,0,3.4,1Z"/></svg>