<svg id="圖層_1" data-name="圖層 1" xmlns="http://www.w3.org/2000/svg" xmlns:xlink="http://www.w3.org/1999/xlink" viewBox="0 0 28.9 14.78"><defs><style>.cls-1{fill:url(#未命名漸層_26);}</style><linearGradient id="未命名漸層_26" x1="5.81" y1="-2.62" x2="22.88" y2="14.46" gradientUnits="userSpaceOnUse"><stop offset="0.05" stop-color="#b68c5f"/><stop offset="0.15" stop-color="#b98f62"/><stop offset="0.25" stop-color="#c69c6d"/><stop offset="0.36" stop-color="#a67c52"/><stop offset="0.59" stop-color="#a77d53"/><stop offset="0.63" stop-color="#b0865a"/><stop offset="0.69" stop-color="#c69c6d"/><stop offset="0.75" stop-color="#ad8357"/><stop offset="0.8" stop-color="#986e45"/><stop offset="0.84" stop-color="#91673e"/><stop offset="1" stop-color="#8c6239"/></linearGradient></defs><title>0</title><path class="cls-1" d="M28.11,2.37a8,8,0,0,0-2.44-.27,27.11,27.11,0,0,0-5.74.81.7.7,0,0,1-.81-.22A9.3,9.3,0,0,0,16.72.82,6.11,6.11,0,0,0,14,0c-.47,0-.57.19-.35.65s.36.79.52,1.2a8.35,8.35,0,0,1,.7,2.69c0,.35-.15.35-.55.59a2.41,2.41,0,0,1-.91.25c-.47.06-.78.17-1.13-.1S11.4,4.71,11,4.43c-.15-.1-.3-.17-.45,0s-.14.27-.07.44a2.45,2.45,0,0,1,.21.76c0,.4-.08.65-.54.71a8.91,8.91,0,0,1-1.46.14,1.93,1.93,0,0,1-2-1.1A13.93,13.93,0,0,0,3.13.87C3,.74,2.83.54,2.57.66s-.16.33-.2.51V4.23c0,.43,0,.87,0,1.3S.4,8.31.08,8.67A.33.33,0,0,0,0,9h0a.32.32,0,0,0,.39.13c.89-.34,3.65-1.42,4.27-1.79h0a1.37,1.37,0,0,1,1,.09c0,.22.58.56.91.82.83.59,2.11,1.44,2.11,1.44,1.1.49,1.11.59.49,2-.16.38-.08.56.34.56a3.2,3.2,0,0,0,2.28-.88.5.5,0,0,1,.63-.12,8.22,8.22,0,0,0,4,.41c.51-.08.67,0,.79.37a12.69,12.69,0,0,0,1,2.29c.1.18.16.42.44.39s.27-.26.34-.43c.34-.85.67-1.71,1-2.56l.15-.25a1.06,1.06,0,0,1,.45.29,15.53,15.53,0,0,1,1.93,2c.12.15.22.35.46.29s.28-.26.34-.45.26-1.54.27-1.72V11l0-.39v-.2s0-.77.43-1a6.44,6.44,0,0,0,.72-.42,14,14,0,0,0,2.87-2.67c.15-.19.28-.42.34-.49a6.66,6.66,0,0,0,.77-1.8C29,3.14,28.9,2.87,28.11,2.37ZM14.36,5.77ZM3.53,3.36A.88.88,0,0,0,3,3.1V2.63C3,2.33,3,2,3,1.57a10.87,10.87,0,0,1,1.75,2L5.11,4l.3.42a8.15,8.15,0,0,1,1,1.62A1,1,0,0,0,7,6.76l-1.16,0A19.38,19.38,0,0,0,3.53,3.36Zm7.37,8c-.25.11-.59.35-.75.18s0-.53.06-.82c0-.14.11-.13.21-.09l.95.35A.89.89,0,0,1,10.9,11.4Zm5-.3A15.43,15.43,0,0,1,9.07,9.36a7.67,7.67,0,0,1-1.5-1.17l.9.34a4.71,4.71,0,0,0,.64.19h0a23.81,23.81,0,0,0,3.12.67h.07a23.56,23.56,0,0,0,3.93.23c.3,0,.95-.07.95.26C17.2,9.94,17.74,11.18,15.92,11.1Zm2.76,2.52V9c.57-.09,1.07-.17,1.13-.2a3.4,3.4,0,0,1-.09,1,15.42,15.42,0,0,1-1,3.76Zm3.49-9.3h0a.46.46,0,0,1,.46-.46.47.47,0,0,1,.46.46h0a.47.47,0,0,1-.46.46A.46.46,0,0,1,22.17,4.32Zm.76,8.9a16,16,0,0,0-2.19-2.17L23,10.13A10.07,10.07,0,0,1,22.93,13.22ZM28.19,4c0,.09-.06.19-.1.29a.8.8,0,0,0-.39-.47c-.85-.47-3.77-.72-6.53,0s-2.89.46-2.89.46a6.69,6.69,0,0,0-3.12-2.81c-.23-.09-.42-.17-.58-.22-.09-.22-.19-.44-.29-.66a8.1,8.1,0,0,1,4.78,3c.23.21.48,0,.71,0a16.74,16.74,0,0,1,3.71-.69.05.05,0,0,1,.08,0,10.25,10.25,0,0,1,2.28-.15,4.43,4.43,0,0,1,1.58.11C28.27,3,28.4,3.23,28.19,4Z"/></svg>