<svg xmlns="http://www.w3.org/2000/svg" viewBox="0 0 21.8 19.24"><defs><style>.cls-1{fill:#3d4cce;}</style></defs><title>slot_內頁</title><g id="home"><path class="cls-1" d="M21.8,9.34v.57l0,0a1.4,1.4,0,0,1-1.42.86c-.33,0-.66,0-1,0s-.26.06-.26.25c0,1.85,0,3.71,0,5.57a2.47,2.47,0,0,1-1.4,2.3,5.3,5.3,0,0,1-.9.31H12.94A2.09,2.09,0,0,0,13,19V13.54c0-.31,0-.61,0-.92,0-.47-.14-.6-.67-.6H9.55c-.55,0-.69.13-.7.62v.07c0,2.18,0,4.35,0,6.53H5a.09.09,0,0,0,0,0A2.59,2.59,0,0,1,2.76,17c0-.2,0-.41,0-.62,0-1.78,0-3.57,0-5.35,0-.19-.07-.24-.27-.23s-.66,0-1,0a1.37,1.37,0,0,1-.29,0A1.39,1.39,0,0,1,0,9.83V9.42A2.48,2.48,0,0,1,.73,8.3l3.1-2.85L8.88.81a2.93,2.93,0,0,1,4-.05c.84.75,1.65,1.51,2.48,2.27,1.67,1.54,3.35,3.07,5,4.62A4.14,4.14,0,0,1,21.8,9.34ZM7.5,18v-.24c0-1.59,0-3.17,0-4.76a5.29,5.29,0,0,1,.07-.8A1.64,1.64,0,0,1,9.3,10.84c.38,0,.76,0,1.13,0,.75,0,1.49,0,2.23,0a1.51,1.51,0,0,1,1.42.93,3.59,3.59,0,0,1,.22,1.11c0,1.64,0,3.28,0,4.92V18l.11,0h2.12a1.06,1.06,0,0,0,.76-.34,1.46,1.46,0,0,0,.43-1.07c0-2.26,0-4.52,0-6.77V9.61h2.39c.27,0,.3,0,.15-.24A3.08,3.08,0,0,0,19.88,9q-2.82-2.61-5.66-5.2c-.81-.74-1.61-1.49-2.43-2.22a1.32,1.32,0,0,0-1.78,0c-.17.14-.32.28-.48.43C7,4.35,4.36,6.71,1.78,9.09a1.48,1.48,0,0,0-.25.3c-.12.19-.1.22.15.22h2.4v.22c0,2.25,0,4.49,0,6.74a2.08,2.08,0,0,0,.19.8,1.05,1.05,0,0,0,.93.65C6,18.05,6.72,18,7.5,18Z"/></g></svg>