<?xml version="1.0" encoding="utf-8"?>
<!-- Generator: Adobe Illustrator 24.1.3, SVG Export Plug-In . SVG Version: 6.00 Build 0)  -->
<svg version="1.1" id="Capa_1" xmlns="http://www.w3.org/2000/svg" xmlns:xlink="http://www.w3.org/1999/xlink" x="0px" y="0px"
	 viewBox="0 0 16 16" style="enable-background:new 0 0 16 16;" xml:space="preserve">
<style type="text/css">
	.st0{fill:url(#SVGID_1_);}
</style>
<linearGradient id="SVGID_1_" gradientUnits="userSpaceOnUse" x1="8" y1="16" x2="8" y2="-9.094947e-13">
	<stop  offset="0" style="stop-color:#CCA172"/>
	<stop  offset="0.5" style="stop-color:#CCA172"/>
	<stop  offset="1" style="stop-color:#CCA172"/>
</linearGradient>
<path class="st0" d="M8,0C3.6,0,0,3.6,0,8s3.6,8,8,8s8-3.6,8-8S12.4,0,8,0z M8.5,12.7C8.1,12.8,7.4,13,7,13c-0.3,0-0.6-0.2-0.8-0.4
	C6,12.3,5.9,12,6.1,11.7l1.5-4.2H6C6,6.6,6.6,6,7.5,5.8C7.9,5.6,8.6,5.5,9,5.5c0.2,0,0.6,0.2,0.8,0.4c0.2,0.3,0.2,0.6,0.1,0.9
	L8.4,11H10C10,11.9,9.4,12.6,8.5,12.7L8.5,12.7z M9,5C8.4,5,8,4.6,8,4c0-0.6,0.4-1,1-1c0.6,0,1,0.4,1,1C10,4.6,9.6,5,9,5L9,5z"/>
</svg>
