<?xml version="1.0" encoding="utf-8"?>
<!-- Generator: Adobe Illustrator 24.1.3, SVG Export Plug-In . SVG Version: 6.00 Build 0)  -->
<svg version="1.1" id="圖層_1" xmlns="http://www.w3.org/2000/svg" xmlns:xlink="http://www.w3.org/1999/xlink" x="0px" y="0px"
	 viewBox="0 0 21.3 20" style="enable-background:new 0 0 21.3 20;" xml:space="preserve">
<style type="text/css">
	.st0{fill:#4a59ed;}
</style>
<g>
	<g>
		<g>
			<path class="st0" d="M11.6,0.3c1.1,1.6,2,3.4,2.6,5.2c1.4-0.2,2.7-0.7,3.9-1.3l0.3-0.2C16.7,1.8,14.2,0.5,11.6,0.3z"/>
		</g>
	</g>
	<g>
		<g>
			<path class="st0" d="M13.1,7.1c-0.8,0.1-1.6,0.1-2.4,0.1c-0.8,0-1.6,0-2.4-0.1C8,7.8,7.9,8.5,7.9,9.3h5.6
				C13.4,8.5,13.3,7.8,13.1,7.1z"/>
		</g>
	</g>
	<g>
		<g>
			<path class="st0" d="M10.7,14.2c-0.7,0-1.4,0-2.1,0.1c0.5,1.5,1.2,2.9,2.1,4.3c0.9-1.3,1.6-2.8,2.1-4.3
				C12,14.2,11.3,14.2,10.7,14.2z"/>
		</g>
	</g>
	<g>
		<g>
			<path class="st0" d="M14.8,10.7c0,0.8-0.2,1.6-0.3,2.5c1.5,0.2,2.9,0.8,4.2,1.5l0.4,0.2c0.8-1.3,1.2-2.7,1.3-4.2H14.8L14.8,10.7z
				"/>
		</g>
	</g>
	<g>
		<g>
			<path class="st0" d="M19.1,5.1l-0.4,0.2c-1.3,0.8-2.7,1.3-4.2,1.5c0.2,0.8,0.3,1.6,0.3,2.4h5.6C20.3,7.8,19.9,6.4,19.1,5.1z"/>
		</g>
	</g>
	<g>
		<g>
			<path class="st0" d="M7.9,10.7c0,0.8,0.2,1.5,0.3,2.2c1.6-0.2,3.3-0.2,4.9,0c0.2-0.7,0.3-1.5,0.3-2.2H7.9z"/>
		</g>
	</g>
	<g>
		<g>
			<path class="st0" d="M2.6,5.3L2.2,5.1C1.4,6.4,1,7.8,0.9,9.3h5.6c0-0.8,0.2-1.6,0.3-2.4C5.3,6.6,3.9,6.1,2.6,5.3z"/>
		</g>
	</g>
	<g>
		<g>
			<path class="st0" d="M7.2,14.5c-1.4,0.2-2.7,0.7-3.9,1.3L3,16.1c1.7,2.1,4.1,3.4,6.8,3.7C8.6,18.1,7.8,16.4,7.2,14.5z"/>
		</g>
	</g>
	<g>
		<g>
			<path class="st0" d="M10.7,1.4C9.8,2.8,9.1,4.2,8.6,5.7c0.7,0.1,1.4,0.1,2.1,0.1c0.7,0,1.4,0,2.1-0.1C12.2,4.2,11.5,2.8,10.7,1.4
				z"/>
		</g>
	</g>
	<g>
		<g>
			<path class="st0" d="M18,15.9c-1.2-0.7-2.5-1.1-3.9-1.3c-0.6,1.9-1.5,3.6-2.6,5.2c2.7-0.2,5.1-1.6,6.8-3.7L18,15.9z"/>
		</g>
	</g>
	<g>
		<g>
			<path class="st0" d="M3,3.9l0.3,0.2c1.2,0.7,2.5,1.1,3.9,1.3c0.6-1.9,1.5-3.6,2.6-5.2C7.1,0.5,4.6,1.8,3,3.9z"/>
		</g>
	</g>
	<g>
		<g>
			<path class="st0" d="M6.5,10.7H0.9c0.1,1.5,0.5,2.9,1.3,4.2l0.4-0.2c1.3-0.8,2.7-1.3,4.2-1.5C6.6,12.3,6.5,11.5,6.5,10.7z"/>
		</g>
	</g>
</g>
</svg>
