<?xml version="1.0" encoding="utf-8"?>
<!-- Generator: Adobe Illustrator 21.1.0, SVG Export Plug-In . SVG Version: 6.00 Build 0)  -->
<svg version="1.1" id="圖層_1" xmlns="http://www.w3.org/2000/svg" xmlns:xlink="http://www.w3.org/1999/xlink" x="0px" y="0px"
	 viewBox="0 0 46.3 43.8" style="enable-background:new 0 0 46.3 43.8;" xml:space="preserve">
<style type="text/css">
	.st0{fill:#1EB925;}
</style>
<path id="形狀_1" class="st0" d="M24.5,42.8h-2.8c-0.1,0-0.2-0.1-0.4-0.1c-2.6-0.1-5.3-0.2-7.9-0.4c-1.4-0.1-2.8-0.2-4.2-0.4
	C6,41.5,3.3,38.6,3,35.4c-0.2-2.4-0.4-4.7-0.6-7.1c-0.1-2.1-0.2-4.1-0.2-6.2c0.1-3.3,0.2-6.5,0.4-9.8C2.7,10.9,2.9,9.4,3.1,8
	c0.5-3.3,3.2-5.9,6.5-6.3c2.4-0.2,4.7-0.4,7.1-0.6c2-0.1,4.1-0.2,6.2-0.2c3.3,0.1,6.5,0.2,9.8,0.4c1.5,0.1,2.9,0.2,4.4,0.4
	c3,0.5,5.4,2.7,6.1,5.7c0.2,1,0.3,2,0.4,2.9c0.1,1.8,0.3,3.5,0.4,5.3c0.1,1.4,0.1,2.8,0.1,4.2c0,0.1,0,0.3,0.1,0.4v2.8
	c0,0.2-0.1,0.4-0.1,0.6c0,1.5,0,3-0.1,4.5c-0.1,2.3-0.4,4.5-0.5,6.8c-0.2,3.1-2.5,5.9-5.5,6.6c-1.1,0.3-2.2,0.3-3.3,0.4
	c-1.7,0.2-3.5,0.3-5.2,0.4c-1.5,0.1-2.9,0.1-4.4,0.1C24.8,42.7,24.6,42.7,24.5,42.8z M36.2,20.1c0-2.3-0.8-4.6-2.4-6.3
	c-2.5-2.7-5.7-4-9.3-4.3c-1.9-0.2-3.9,0-5.8,0.6c-2.8,0.8-5.2,2.3-7,4.7c-1.3,1.7-1.9,3.9-1.7,6.1c0.3,2.4,1.5,4.4,3.3,6
	c2.2,2,4.9,3,7.8,3.4c0.6,0.1,0.8,0.3,0.8,0.9c-0.1,0.7-0.1,1.4-0.2,2.1c0,0.4,0,0.7,0.3,1s0.7,0.2,1,0c1.3-0.7,2.6-1.4,3.9-2.2
	c3.1-1.9,5.8-4.1,7.8-7.2C35.7,23.2,36.2,21.7,36.2,20.1L36.2,20.1z M23.1,19.7c0,1,0,1.9,0,2.9c0,0.3-0.2,0.5-0.4,0.6
	c-0.2,0.1-0.4,0-0.6-0.1c-0.2-0.1-0.2-0.3-0.3-0.5c0-1.6,0-3.3,0-4.9c0-0.3,0.2-0.6,0.5-0.6c0.2,0,0.5,0.1,0.7,0.3
	c0.8,1,1.6,2,2.4,3.1c0.1,0.1,0.2,0.2,0.3,0.4c0-0.2,0.1-0.4,0.1-0.5c0-0.8,0-1.7,0-2.5c0-0.5,0.2-0.7,0.6-0.7
	c0.4,0,0.6,0.3,0.6,0.7c0,1.6,0,3.2,0,4.8c0,0.3-0.2,0.6-0.4,0.7c-0.3,0.1-0.5-0.1-0.7-0.3c-0.8-1-1.5-2-2.3-2.9
	c-0.1-0.1-0.2-0.2-0.3-0.4L23.1,19.7z M28.1,20.2c0-0.8,0-1.6,0-2.4c0-0.5,0.2-0.8,0.8-0.8c0.8,0,1.6,0,2.4,0c0.5,0,0.8,0.2,0.8,0.6
	c0,0.4-0.3,0.6-0.8,0.6c-0.5,0-1.1,0-1.6,0c-0.2,0-0.3,0.1-0.3,0.2c0,0,0,0.1,0,0.1c0,1-0.1,1,0.9,1c0.4,0,0.7,0,1.1,0
	c0.3,0,0.6,0.2,0.7,0.6c0,0,0,0,0,0.1c0,0.4-0.2,0.6-0.7,0.6c-0.5,0-1.1,0-1.6,0c-0.2,0-0.3,0.1-0.3,0.3c0,1.2-0.1,0.9,0.9,1
	c0.4,0,0.7,0,1.1,0c0.4,0,0.7,0.2,0.7,0.6c0,0.4-0.3,0.6-0.7,0.6c-0.8,0-1.7,0-2.5,0c-0.5,0-0.7-0.3-0.7-0.7
	C28.1,21.8,28.1,21,28.1,20.2L28.1,20.2z M14.9,20.1c0-0.8,0-1.5,0-2.3c0-0.5,0.2-0.8,0.6-0.8c0.4,0,0.6,0.3,0.6,0.8
	c0,1.3,0,2.5,0,3.8c0,0.4,0.1,0.5,0.5,0.5c0.5,0,1,0,1.5,0c0.4,0,0.7,0.2,0.7,0.6c0,0.4-0.3,0.6-0.6,0.7c0,0,0,0-0.1,0
	c-0.8,0-1.7,0-2.5,0c-0.4,0-0.7-0.2-0.7-0.7C14.9,21.8,14.9,20.9,14.9,20.1L14.9,20.1L14.9,20.1z M20.7,20.1c0,0.8,0,1.7,0,2.5
	c0,0.4-0.2,0.6-0.6,0.6c-0.4,0-0.7-0.2-0.7-0.6c0-1.7,0-3.4,0-5.1c0-0.4,0.2-0.6,0.7-0.6c0.4,0,0.6,0.2,0.6,0.6
	C20.7,18.5,20.7,19.3,20.7,20.1L20.7,20.1L20.7,20.1z"/>
</svg>
