<svg id="圖層_1" data-name="圖層 1" xmlns="http://www.w3.org/2000/svg" viewBox="0 0 21.41 18.68"><defs><style>.cls-1{fill:#b3b3b3;}</style></defs><title>0</title><path class="cls-1" d="M.33,5.5A4.44,4.44,0,0,1,2.39,3.39a4.72,4.72,0,0,1,1.38-.33H4.93C4.87,2.9,3.79,2,3.6,1.63A1.07,1.07,0,0,1,3.91.23,1,1,0,0,1,5.33.34C6.18,1.17,7,2,7.85,2.85a1.15,1.15,0,0,0,.83.21L13,3.12A1.68,1.68,0,0,0,14,2.84L16.47.32A1.09,1.09,0,0,1,17.76.14a1.15,1.15,0,0,1,.55,1.17,1.16,1.16,0,0,1-.37.64c-.3.3-.6.59-.89.89-.05.05-.14.09-.1.18s.13,0,.2,0a4.3,4.3,0,0,1,1.93.38,4.19,4.19,0,0,1,1.8,1.69,3.16,3.16,0,0,1,.22.5,4.81,4.81,0,0,1,.29,1.59c0,.61,0,1.22,0,1.82a1.19,1.19,0,0,1-.34.8.85.85,0,0,1-.5.25c-.8.12-1.25-.46-1.32-1.2a17.15,17.15,0,0,0-.07-1.76,2.17,2.17,0,0,0-.86-1.41,3.32,3.32,0,0,0-2.22-.64H5.35a5.32,5.32,0,0,0-.69,0A2.84,2.84,0,0,0,2.27,7.39c-.14.91-.12,5.41,0,6.74A2.7,2.7,0,0,0,5,16.67c3,0,5.94,0,8.91,0,1.13,0,2.25,0,3.37,0A2.12,2.12,0,0,0,19.39,15s.14-1.49.14-1.49c-.12-.35-2-.09-2.17-.21a1,1,0,0,1-.42-1.11.92.92,0,0,1,.88-.69c1,0,2,0,3.05,0a.42.42,0,0,1,.48.42,19.37,19.37,0,0,1,0,3.32,4,4,0,0,1-4,3.44c-4.43-.05-8.85,0-13.28,0a4,4,0,0,1-.85-.05A4.06,4.06,0,0,1,0,14.72c0-.66,0-1.33,0-2C0,10.8,0,8.87,0,6.94A3.14,3.14,0,0,1,.33,5.5Z"/><path class="cls-1" d="M7.68,8l.08-.31c.44-.65.78-.73,1.49-.36l.32.18c1,.68,2.09,1.32,3.15,2,.19.14.4.26.58.41a1,1,0,0,1,0,1.74c-.39.3-.81.55-1.22.81L9.53,13.93a3,3,0,0,1-.64.32.85.85,0,0,1-1.15-.64,3.17,3.17,0,0,1-.07-.69c0-.41,0-.83,0-1.25a1.25,1.25,0,0,0,0-.51V11a1,1,0,0,0,0-.43C7.71,9.68,7.66,8.82,7.68,8Z"/></svg>