<svg id="圖層_1" data-name="圖層 1"
  xmlns="http://www.w3.org/2000/svg"
  xmlns:xlink="http://www.w3.org/1999/xlink" viewBox="0 0 199.94 94">
  <defs>
    <style>.cls-1{fill:#fff;}</style>
  </defs>
  <title>logo</title>
  <path class="cls-1" d="M0,4.57H32.22V21.83H0ZM0,26.78H32.22V91H0Z"/>
  <path class="cls-1" d="M41.51,65.11c0-9.43,4.83-15.94,12.92-20-7.24-4.65-10.14-10.49-10.14-18.33,0-11.68,8.09-25.62,34.16-25.62,22.7,0,34.89,10.35,34.89,25.49,0,9.69-5.07,15.27-10.26,18.32,6.27,2.93,13.16,8.64,13.16,19.92,0,14.61-9.78,28.15-38.75,28.15C53.71,93,41.51,80.11,41.51,65.11ZM73.87,28.19c0,4.39,1,8,4.94,8s4.83-4.25,4.83-8.1c0-4.91-1.08-7.7-5.07-7.7C75.8,20.36,73.87,22.35,73.87,28.19ZM84.25,64.58c0-5.71-1.21-9-5.19-9-3.5,0-5.19,3.05-5.19,8.89,0,6.38,2,9.17,5.07,9.17C83.4,73.61,84.25,69.22,84.25,64.58Z"/>
  <path class="cls-1" d="M124.44,65.11c0-9.43,4.83-15.94,12.92-20-7.25-4.65-10.14-10.49-10.14-18.33,0-11.68,8.09-25.62,34.16-25.62,22.69,0,34.88,10.35,34.88,25.49,0,9.69-5.07,15.27-10.26,18.32,6.28,2.93,13.16,8.64,13.16,19.92,0,14.61-9.78,28.15-38.75,28.15C136.63,93,124.44,80.11,124.44,65.11Zm32.35-36.92c0,4.39,1,8,5,8s4.83-4.25,4.83-8.1c0-4.91-1.09-7.7-5.07-7.7C158.72,20.36,156.79,22.35,156.79,28.19Zm10.38,36.39c0-5.71-1.2-9-5.19-9-3.5,0-5.19,3.05-5.19,8.89,0,6.38,2.05,9.17,5.07,9.17C166.33,73.61,167.17,69.22,167.17,64.58Z"/>
</svg>
