<svg id="圖層_1" data-name="圖層 1" xmlns="http://www.w3.org/2000/svg" viewBox="0 0 19.45 19.44"><defs><style>.cls-1{fill:#b3b3b3;}</style></defs><title>0</title><path class="cls-1" d="M2,15.5c.11,0,.22.06.17.21Z"/><path class="cls-1" d="M15.73.79l.18.15Z"/><path class="cls-1" d="M2.14,15.7c.12,0,.17,0,.14.15Z"/><path class="cls-1" d="M10.07,12.72A1.31,1.31,0,0,1,8.76,11.3c0-.72.73-1.53,1.29-1.51a1.74,1.74,0,0,1,1.74,1.52A1.61,1.61,0,0,1,10.07,12.72Z"/><path class="cls-1" d="M9.32,6.17a1.09,1.09,0,0,1,1.11,1.17c0,.6-.58,1.43-1,1.43A1.69,1.69,0,0,1,7.94,7.39,1.36,1.36,0,0,1,9.32,6.17Z"/><path class="cls-1" d="M15.64,2A9.35,9.35,0,0,0,7.83.19C.91,1.46-2.39,10.1,2,15.5c.11,0,.21.05.18.2.11,0,.16,0,.13.15v.05a9.68,9.68,0,0,0,15.43-.62C20.69,11,19.72,4.81,15.64,2Zm-11,5c-.08.27-.32.25-.53.26H3.53c-.79,0-1.06-.07-1.08-.43V6.8a3.12,3.12,0,0,1,.06-.37c.06-.28.16-.45.49-.31s.85.33,1.27.5C4.46,6.7,4.72,6.76,4.64,7.06ZM6.12,5A2.7,2.7,0,0,0,5,5.89c-.21.27-.5,0-.73-.09C2.74,5.28,2.7,5.06,3.9,4A5.32,5.32,0,0,1,5.32,3.1c.6-.26.79,0,.83.54,0,.31.08.62.14,1.09A.27.27,0,0,1,6.12,5Zm3.74,8.63a2,2,0,0,1-1.93-1.06,2.15,2.15,0,0,1,.18-2.4,8.36,8.36,0,0,1,.55-.66c-1.61-.71-2.2-1.84-1.59-3a2.78,2.78,0,0,1,3.63-1c1.07.7,1.08,1.93,0,3.36.13.23.38.13.57.2a2.11,2.11,0,0,1,1.55,1.67A2,2,0,0,1,11.91,13,3.65,3.65,0,0,1,9.86,13.64Zm7.46.29a8.34,8.34,0,0,1-4.77,3.91h-.11a.31.31,0,0,1-.3-.2.29.29,0,0,1,.2-.38,7.88,7.88,0,0,0,5.29-6.06A.32.32,0,0,1,18,11a.31.31,0,0,1,.28.33A8.25,8.25,0,0,1,17.32,13.93Z"/></svg>