<?xml version="1.0" encoding="utf-8"?>
<!-- Generator: Adobe Illustrator 21.1.0, SVG Export Plug-In . SVG Version: 6.00 Build 0)  -->
<svg version="1.1" id="圖層_1" xmlns="http://www.w3.org/2000/svg" xmlns:xlink="http://www.w3.org/1999/xlink" x="0px" y="0px"
	 viewBox="0 0 20.4 17.7" style="enable-background:new 0 0 20.4 17.7;" xml:space="preserve">
<style type="text/css">
	.st0{fill:#F31D1D;}
</style>
<title>通博_slot_內頁</title>
<g id="banner2">
	<path class="st0" d="M5.7,0c1.4,0,2.8,0.5,3.9,1.5l0.3,0.3c0.1,0.2,0.4,0.2,0.6,0c0,0,0,0,0,0l0.7-0.6c2-1.5,4.8-1.5,6.9,0
		c0.9,0.8,1.6,1.8,2,2.9c0.3,0.8,0.3,1.7,0.3,2.5c0,0.3,0,0.6-0.1,0.9c0,0.2,0,0.3-0.1,0.5c-0.3,1.2-0.8,2.3-1.5,3.3
		c-0.8,1.2-1.8,2.2-2.9,3.1c-1.1,0.9-2.3,1.7-3.6,2.4c-0.6,0.3-1.2,0.6-1.8,0.9c-0.2,0.1-0.4,0.1-0.6,0c-1.2-0.5-2.4-1.2-3.5-1.9
		c-0.6-0.4-1.3-0.9-1.9-1.4c-0.5-0.5-1-1-1.5-1.5C1.7,11.5,0.8,10,0.3,8.3C0.1,7.8,0,7.3,0,6.9C0,6.5,0,6,0,5.6c0-0.3,0-0.6,0.1-0.9
		c0.3-1.8,1.4-3.3,3-4.1C3.9,0.2,4.8,0,5.7,0z"/>
</g>
</svg>
