<svg xmlns="http://www.w3.org/2000/svg" viewBox="0 0 21.95 19.23"><defs><style>.cls-1{fill:none;stroke:#b0b0b1;stroke-miterlimit:10;stroke-width:1.56px;}</style></defs><title>slot_favorite</title><g id="banner2"><path class="cls-1" d="M6.45.79a5.85,5.85,0,0,1,3.92,1.48l.3.26a.4.4,0,0,0,.6,0L12,1.94a5.73,5.73,0,0,1,6.87,0,6.18,6.18,0,0,1,2,2.93,6.45,6.45,0,0,1,.26,2.51c0,.3,0,.6-.07.9a2.86,2.86,0,0,1-.09.51A11.42,11.42,0,0,1,19.52,12a14.62,14.62,0,0,1-2.86,3.07,22,22,0,0,1-3.59,2.36c-.6.32-1.22.62-1.83.93a.6.6,0,0,1-.58,0,24.85,24.85,0,0,1-3.54-1.95c-.64-.45-1.31-.86-1.91-1.36a19.41,19.41,0,0,1-1.53-1.48A11.16,11.16,0,0,1,1,9,4.92,4.92,0,0,1,.81,7.65c0-.41,0-.83,0-1.24a5.06,5.06,0,0,1,.11-.86A5.8,5.8,0,0,1,3.84,1.44,5,5,0,0,1,6.45.79Z"/></g></svg>