<?xml version="1.0" encoding="utf-8"?>
<!-- Generator: Adobe Illustrator 24.1.3, SVG Export Plug-In . SVG Version: 6.00 Build 0)  -->
<svg version="1.1" id="圖層_1" xmlns="http://www.w3.org/2000/svg" xmlns:xlink="http://www.w3.org/1999/xlink" x="0px" y="0px"
	 viewBox="0 0 38 34" style="enable-background:new 0 0 38 34;" xml:space="preserve">
<style type="text/css">
	.st0{fill:url(#SVGID_1_);}
	.st1{fill:url(#SVGID_2_);}
	.st2{fill:url(#SVGID_3_);}
	.st3{fill:url(#SVGID_4_);}
</style>
<g>
	<linearGradient id="SVGID_1_" gradientUnits="userSpaceOnUse" x1="10.315" y1="7.3861" x2="10.315" y2="28.0812">
		<stop  offset="0" style="stop-color:#2E7BFF"/>
		<stop  offset="1" style="stop-color:#7C4BFF"/>
	</linearGradient>
	<path class="st0" d="M15.6,17.2L5.3,7.5C5.1,7.9,5,8.3,5,8.7v16.6c0,0.7,0.2,1.4,0.6,1.9L15.6,17.2z"/>
	<linearGradient id="SVGID_2_" gradientUnits="userSpaceOnUse" x1="27.825" y1="7.3861" x2="27.825" y2="28.0812">
		<stop  offset="0" style="stop-color:#2E7BFF"/>
		<stop  offset="1" style="stop-color:#7C4BFF"/>
	</linearGradient>
	<path class="st1" d="M32.5,7.2L22.7,17l10,9.4c0.1-0.4,0.2-0.7,0.2-1.1V8.7C32.9,8.2,32.8,7.7,32.5,7.2z"/>
	<linearGradient id="SVGID_3_" gradientUnits="userSpaceOnUse" x1="18.835" y1="7.3861" x2="18.835" y2="28.0812">
		<stop  offset="0" style="stop-color:#2E7BFF"/>
		<stop  offset="1" style="stop-color:#7C4BFF"/>
	</linearGradient>
	<path class="st2" d="M19.1,18.1L31.3,5.9c-0.5-0.3-1-0.4-1.6-0.4H8.2c-0.7,0-1.3,0.2-1.9,0.6L19.1,18.1z"/>
	<linearGradient id="SVGID_4_" gradientUnits="userSpaceOnUse" x1="19.36" y1="7.3861" x2="19.36" y2="28.0812">
		<stop  offset="0" style="stop-color:#2E7BFF"/>
		<stop  offset="1" style="stop-color:#7C4BFF"/>
	</linearGradient>
	<path class="st3" d="M21.5,18.3l-2.3,2.3l-2.3-2.1l-9.9,9.9c0.4,0.1,0.8,0.2,1.2,0.2h21.5c0.7,0,1.4-0.3,1.9-0.7L21.5,18.3z"/>
</g>
</svg>
