<svg id="home" xmlns="http://www.w3.org/2000/svg" viewBox="0 0 17.07 18"><defs><style>.cls-1{fill:#3d4cce;}</style></defs><title>mobile_home (1)</title><path class="cls-1" d="M10.94.16a1.28,1.28,0,0,0-1.27,0L9.59.26,4.26,4.79H.1c-.22,0,0,.08,0,.3v7.43c0,.11-.15.2-.08.28s.07.11.18.11H4.3l5.27,4.87,0,0a1.17,1.17,0,0,0,.62.18,1.59,1.59,0,0,0,.7-.16,1.33,1.33,0,0,0,.74-1.08V1.24A1.33,1.33,0,0,0,10.94.16Z"/><path class="cls-1" d="M12.87,3.23a.91.91,0,0,0-.7.08.91.91,0,0,0-.35,1.24.87.87,0,0,0,.55.44,4,4,0,0,1,0,7.63.92.92,0,0,0-.63,1.13.92.92,0,0,0,.88.67.93.93,0,0,0,.25,0,5.8,5.8,0,0,0,0-11.15Z"/></svg>