<svg xmlns="http://www.w3.org/2000/svg" viewBox="0 0 17.45 17.57"><defs><style>.cls-1{fill:#4a59ed;}</style></defs><title>0</title><g id="cnt"><path class="cls-1" d="M8.67,0a8.79,8.79,0,0,0,0,17.57A8.79,8.79,0,0,0,8.67,0Zm1.87,13.59a2.78,2.78,0,0,1-1,.35,2.26,2.26,0,0,1-.94.12,2.15,2.15,0,0,1-1.29-.35,1.16,1.16,0,0,1-.47-1.06v-.47c.12-.11.12-.23.12-.47l.59-2c0-.23.11-.35.11-.58V8.67a.93.93,0,0,0-.11-.59A2.63,2.63,0,0,0,6.91,8a.74.74,0,0,0-.47.11c-.11,0-.23.12-.35.12l.12-.59a4,4,0,0,1,1-.46A2.87,2.87,0,0,1,8.2,7a1.91,1.91,0,0,1,1.29.35,1.14,1.14,0,0,1,.47,1V8.9a.87.87,0,0,1-.12.59l-.59,2a5.34,5.34,0,0,0-.11.59v.46a.88.88,0,0,0,.23.59.87.87,0,0,0,.59.12.9.9,0,0,0,.47-.12,1.23,1.23,0,0,0,.35-.12Zm-.11-8.08a1.44,1.44,0,0,1-1.88,0,1.09,1.09,0,0,1-.35-.82,1.57,1.57,0,0,1,.35-.94,1.44,1.44,0,0,1,1.88,0,1.05,1.05,0,0,1,.46.94A.89.89,0,0,1,10.43,5.51Z"/></g></svg>