<svg xmlns="http://www.w3.org/2000/svg" viewBox="0 0 18.97 20.89"><defs><style>.cls-1{fill:#3d4cce;}</style></defs><title>slot_內頁</title><g id="home"><path class="cls-1" d="M.68,20.89a.67.67,0,0,1-.5-.2A.69.69,0,0,1,0,20.2a10.89,10.89,0,0,1,1.35-5.1,10.05,10.05,0,0,1,3.14-3.46A8.9,8.9,0,0,1,7.1,10.42l.44-.13-.41-.21A5.3,5.3,0,0,1,4.44,6.92a5.2,5.2,0,0,1,0-3.33A5.29,5.29,0,0,1,9.52,0h.12a5.35,5.35,0,0,1,5,3.8,5.36,5.36,0,0,1-2.72,6.27l-.39.2.64.22.46.16a9.31,9.31,0,0,1,3.35,2.19,10.57,10.57,0,0,1,2.75,5.05,10,10,0,0,1,.28,2.3.64.64,0,0,1-.68.7Zm12.79-4.58a.39.39,0,0,1,.39.36l.53,2.93h3.27s0-.44-.05-.5a9.58,9.58,0,0,0-1.75-4.36,8.66,8.66,0,0,0-2.1-2,7.84,7.84,0,0,0-1.08-.61,7.43,7.43,0,0,0-2.35-.68l-.53-.06.75.76L9.71,13l1.21,4L9.5,19.07,8.08,17l1.21-4-.84-.84.75-.75-.63.07a7.87,7.87,0,0,0-5.14,2.91,9.34,9.34,0,0,0-2,4.34c0,.15-.05.31-.07.48l-.06.44H4.61L5,17.54c0-.31.11-.62.17-.93a.38.38,0,0,1,.38-.3h.09a.38.38,0,0,1,.3.45l-.5,2.83h8.16l-.38-2.12c0-.24-.09-.47-.12-.71a.38.38,0,0,1,.32-.46Zm-4-15A4,4,0,0,0,6.63,8.15a4,4,0,0,0,2.84,1.2,4,4,0,0,0,0-8.08Z"/></g></svg>