<?xml version="1.0" encoding="utf-8"?>
<!-- Generator: Adobe Illustrator 21.1.0, SVG Export Plug-In . SVG Version: 6.00 Build 0)  -->
<svg version="1.1" id="圖層_1" xmlns="http://www.w3.org/2000/svg" xmlns:xlink="http://www.w3.org/1999/xlink" x="0px" y="0px"
	 viewBox="0 0 16 16" style="enable-background:new 0 0 16 16;" xml:space="preserve">
<style type="text/css">
	.st0{fill:#FFFFFF;}
	.st1{fill:#4B51E6;}
</style>
<title>0</title>
<g id="cnt">
	<g id="XMLID_1_">
		<g>
			<rect x="7.3" y="3.4" class="st0" width="1.3" height="6.3"/>
			<path class="st0" d="M8.9,11.8c0,0.4-0.3,0.8-0.8,0.8c0,0-0.1,0-0.1,0c-0.4,0.1-0.8-0.2-0.9-0.7C7,11.5,7.3,11.1,7.8,11
				c0.1,0,0.2,0,0.3,0C8.4,11,8.8,11.3,8.9,11.8C8.9,11.7,8.9,11.8,8.9,11.8z"/>
			<path class="st1" d="M8.9,11.7C8.8,11.3,8.4,11,8,11c-0.1,0-0.2,0-0.3,0c-0.4,0.1-0.7,0.5-0.7,0.9c0.1,0.4,0.5,0.7,0.9,0.7
				c0,0,0.1,0,0.1,0C8.5,12.6,8.9,12.2,8.9,11.7C8.9,11.8,8.9,11.7,8.9,11.7z M7.3,9.8h1.3V3.4H7.3V9.8z M8,0c4.4,0,8,3.6,8,8
				s-3.6,8-8,8s-8-3.6-8-8S3.6,0,8,0z"/>
		</g>
		<g>
		</g>
	</g>
</g>
</svg>
