<?xml version="1.0" encoding="utf-8"?>
<!-- Generator: Adobe Illustrator 21.1.0, SVG Export Plug-In . SVG Version: 6.00 Build 0)  -->
<svg version="1.1" id="圖層_1" xmlns="http://www.w3.org/2000/svg" xmlns:xlink="http://www.w3.org/1999/xlink" x="0px" y="0px"
	 viewBox="0 0 9.6 11.6" style="enable-background:new 0 0 9.6 11.6;" xml:space="preserve">
<style type="text/css">
	.st0{fill:#595757;}
</style>
<title>0</title>
<path class="st0" d="M3.8,0c0.4-0.1,0.7,0,1,0.2c1.5,1.1,2.8,2.4,3.8,4c0.7,1,1,2.2,1,3.4c-0.1,1.1-0.5,2.2-1.3,3
	c-0.5,0.6-1.2,0.9-2,0.9H5.7c0.6-0.8,1-1.8,1.1-2.8c0.1-1-0.2-2-0.7-2.9c0.1,0.7-0.2,1.3-0.7,1.7C4.8,8,4.1,7.9,3.7,7.3
	c0,0,0,0,0-0.1C3.3,7.8,3.3,8.5,3.4,9.1c0.2,0.5,0.4,1,0.7,1.5c0.2,0.3,0.2,0.6,0.2,0.9c-2,0.3-3.8-0.9-4.2-2.9
	c-0.2-1.1,0-2.3,0.7-3.2c0.4-0.6,0.9-1.2,1.4-1.8c0.6-0.7,1.1-1.5,1.4-2.4C3.7,0.8,3.7,0.4,3.8,0z M7.3,10.3L7.3,10.3
	C7.7,10,7.9,9.7,8.2,9.4c0.7-1.3,0.7-2.8-0.1-4.1c-0.8-1.5-2-2.8-3.4-3.8c-0.1,0-0.1-0.1-0.2-0.1c-0.2,0.5-0.4,1-0.7,1.4
	C3.4,3.4,2.9,4,2.4,4.7C2,5.2,1.6,5.8,1.3,6.4c-0.5,0.9-0.5,2.1,0.1,3c0.4,0.6,0.9,0.9,1.6,1C2,8.7,2.3,6.6,3.7,5.3
	c0.1,0.2,0.1,0.4,0.2,0.6C4,6.1,4.1,6.3,4.3,6.5c0.1,0.1,0.3,0.3,0.4,0.2C4.8,6.7,4.9,6.6,5,6.5c0.1-0.4,0.1-0.7,0-1.1
	c-0.1-0.5-0.2-1-0.3-1.5c0.5-0.1,1.1,0,1.4,0.4C7.2,5.5,7.8,7,7.7,8.6C7.6,9.2,7.4,9.7,7.3,10.3z"/>
</svg>
