<?xml version="1.0" encoding="utf-8"?>
<!-- Generator: Adobe Illustrator 24.1.3, SVG Export Plug-In . SVG Version: 6.00 Build 0)  -->
<svg version="1.1" id="圖層_1" xmlns="http://www.w3.org/2000/svg" xmlns:xlink="http://www.w3.org/1999/xlink" x="0px" y="0px"
	 viewBox="0 0 17 17" style="enable-background:new 0 0 17 17;" xml:space="preserve">
<style type="text/css">
	.st0{fill:#808080;}
</style>
<g>
	<g>
		<path class="st0" d="M8.5,17C3.8,17,0,13.2,0,8.5S3.8,0,8.5,0S17,3.8,17,8.5S13.2,17,8.5,17z M8.5,1C4.4,1,1,4.4,1,8.5
			S4.4,16,8.5,16S16,12.6,16,8.5S12.6,1,8.5,1z"/>
		<g>
			<path class="st0" d="M9.7,6c0-0.7-0.4-1.3-1.3-1.3C7.8,4.7,7.3,5,6.9,5.5L6.2,4.9c0.6-0.6,1.3-1.1,2.3-1.1c1.4,0,2.2,0.8,2.2,2.1
				c0,1.8-2.2,2.5-1.9,4.4h-1C7.6,8.2,9.7,7.5,9.7,6z M7.6,12.3c0-0.5,0.4-0.9,0.8-0.9s0.8,0.4,0.8,0.9s-0.4,0.8-0.8,0.8
				C7.9,13.1,7.6,12.8,7.6,12.3z"/>
		</g>
	</g>
</g>
</svg>
