<svg xmlns="http://www.w3.org/2000/svg" viewBox="0 0 17.45 17.45"><defs><style>.cls-1{fill:#4a59ed;}</style></defs><title>0</title><g id="cnt"><path class="cls-1" d="M8.61,0a8.73,8.73,0,1,0,8.84,8.61A8.73,8.73,0,0,0,8.61,0Zm0,14h0a1.27,1.27,0,0,1,0-2.54h0a1.27,1.27,0,1,1,0,2.54Zm3.13-6.2a5.87,5.87,0,0,1-1.05.94l-.53.36a1.39,1.39,0,0,0-.53.66,1.21,1.21,0,0,0-.09.54v.09h-2v-.17a2.21,2.21,0,0,1,.33-1.47A8.35,8.35,0,0,1,9.34,7.57,1.79,1.79,0,0,0,9.7,7.2,1.32,1.32,0,0,0,10,6.45a1.5,1.5,0,0,0-.28-.87,1.18,1.18,0,0,0-1-.38,1.1,1.1,0,0,0-1,.47,1.94,1.94,0,0,0-.3,1v.08H5.3V6.68A3.21,3.21,0,0,1,6.67,3.93a3.59,3.59,0,0,1,2-.52,4.22,4.22,0,0,1,2.54.74,2.52,2.52,0,0,1,1,2.19A2.53,2.53,0,0,1,11.71,7.84Z"/></g></svg>