<?xml version="1.0" encoding="utf-8"?>
<!-- Generator: Adobe Illustrator 21.1.0, SVG Export Plug-In . SVG Version: 6.00 Build 0)  -->
<svg version="1.1" id="圖層_1" xmlns="http://www.w3.org/2000/svg" xmlns:xlink="http://www.w3.org/1999/xlink" x="0px" y="0px"
	 viewBox="0 0 10 9" style="enable-background:new 0 0 10 9;" xml:space="preserve">
<style type="text/css">
	.st0{fill:#4B51E6;}
</style>
<title>未命名-1</title>
<path class="st0" d="M5,0C2.2,0,0,1.9,0,4.3c0,1.2,0.5,2.3,1.5,3C1.4,7.9,1.1,8.8,0.2,8.9c0,0,2.3,0.3,3.4-0.6l0,0
	C4.1,8.5,4.5,8.5,5,8.5c2.8,0,5-1.9,5-4.3S7.8,0,5,0z M5.7,6.9H4.4V5.5h1.3V6.9z M6.7,3.8c0,0.2-0.1,0.3-0.2,0.4
	C6.3,4.4,6.2,4.5,6,4.6C5.9,4.7,5.8,4.8,5.7,4.9C5.6,5,5.6,5.1,5.6,5.2H4.5c0-0.2,0-0.5,0.1-0.7c0.1-0.2,0.2-0.3,0.3-0.4
	C5,3.9,5.2,3.7,5.3,3.6c0.1-0.1,0.1-0.3,0.1-0.4c0-0.1,0-0.3-0.1-0.4C5.2,2.7,5.1,2.7,5,2.7C4.7,2.7,4.5,3,4.5,3.5L3.2,3.4
	C3.4,2.2,4,1.6,5.1,1.6C5.5,1.5,6,1.7,6.3,2c0.3,0.3,0.5,0.7,0.4,1.2C6.8,3.4,6.7,3.6,6.7,3.8L6.7,3.8z"/>
</svg>
