<?xml version="1.0" encoding="utf-8"?>
<!-- Generator: Adobe Illustrator 24.1.3, SVG Export Plug-In . SVG Version: 6.00 Build 0)  -->
<svg version="1.1" id="圖層_1" xmlns="http://www.w3.org/2000/svg" xmlns:xlink="http://www.w3.org/1999/xlink" x="0px" y="0px"
	 viewBox="0 0 21.3 20" style="enable-background:new 0 0 21.3 20;" xml:space="preserve">
<style type="text/css">
	.st0{fill:#E11515;}
</style>
<g>
	<g>
		<g>
			<path class="st0" d="M1.8,10.6v7.6c0,0.7,0.6,1.3,1.3,1.3h6.3v-8.9H1.8z"/>
		</g>
	</g>
	<g>
		<g>
			<path class="st0" d="M19.5,5.6h-4C15.8,5.4,16,5.2,16.2,5c1-1,1-2.7,0-3.7c-1-1-2.7-1-3.7,0c-0.5,0.6-2,2.8-1.8,4.3h-0.1
				c0.2-1.5-1.3-3.7-1.8-4.3c-1-1-2.7-1-3.7,0c-1,1-1,2.7,0,3.7c0.2,0.2,0.4,0.4,0.7,0.6h-4c-0.7,0-1.3,0.6-1.3,1.3v1.9
				c0,0.3,0.3,0.6,0.6,0.6h8.2V6.8h2.5v2.5h8.2c0.3,0,0.6-0.3,0.6-0.6V6.8C20.8,6.1,20.2,5.6,19.5,5.6z M9.3,5.5c0,0-0.1,0-0.2,0
				C8.2,5.6,6.5,4.7,6,4.1C5.5,3.6,5.5,2.7,6,2.2c0.3-0.3,0.6-0.4,1-0.4c0.4,0,0.7,0.1,1,0.4C8.8,3,9.6,5.2,9.3,5.5z M12.2,5.6
				c-0.2,0-0.2,0-0.2,0c-0.3-0.3,0.6-2.5,1.4-3.4c0.5-0.5,1.4-0.5,1.9,0c0.5,0.5,0.5,1.4,0,1.9C14.8,4.7,13.1,5.6,12.2,5.6z"/>
		</g>
	</g>
	<g>
		<g>
			<path class="st0" d="M11.9,10.6v8.9h6.3c0.7,0,1.3-0.6,1.3-1.3v-7.6H11.9z"/>
		</g>
	</g>
</g>
</svg>
