<?xml version="1.0" encoding="utf-8"?>
<!-- Generator: Adobe Illustrator 24.1.3, SVG Export Plug-In . SVG Version: 6.00 Build 0)  -->
<svg version="1.1" id="圖層_1" xmlns="http://www.w3.org/2000/svg" xmlns:xlink="http://www.w3.org/1999/xlink" x="0px" y="0px"
	 viewBox="0 0 15 14.99" style="enable-background:new 0 0 15 14.99;" xml:space="preserve">
<style type="text/css">
	.st0{fill:#E11515;}
	.st1{fill:#999999;}
</style>
<g>
	<g>
		<path class="st1" d="M7.5,1.79c2.54,0,4.71,1.69,5.45,3.99c0.6-0.05,1.2-0.11,1.8-0.17C13.9,2.4,10.98,0,7.5,0
			C5.19,0,3.1,1.08,1.73,2.73L1.16,2.17C1.05,2.05,0.87,2.01,0.72,2.07C0.56,2.11,0.44,2.25,0.43,2.42L0,5.32
			c-0.03,0.25,0.16,0.42,0.32,0.48C0.5,5.78,0.68,5.77,0.86,5.76c0.8-0.11,2.7-0.38,2.55-0.36c0.17-0.02,0.3-0.13,0.35-0.29
			c0.05-0.16,0.02-0.33-0.11-0.46L2.98,3.98C4.03,2.65,5.68,1.79,7.5,1.79z"/>
		<path class="st1" d="M14.5,9.1c-0.09,0.01-3.09,0.44-2.9,0.41c-0.17,0.02-0.3,0.13-0.35,0.29c-0.05,0.16-0.02,0.33,0.11,0.46
			l0.7,0.7c-1.04,1.36-2.71,2.25-4.55,2.25c-2.71,0-4.99-1.92-5.57-4.46C1.34,8.84,0.75,8.93,0.17,9.03
			c0.71,3.39,3.74,5.96,7.33,5.96c2.34,0,4.45-1.1,5.82-2.78l0.52,0.52c0.12,0.13,0.31,0.16,0.45,0.11
			c0.16-0.04,0.27-0.18,0.29-0.35L15,9.59C15.03,9.32,14.78,9.05,14.5,9.1z"/>
	</g>
</g>
</svg>
