<?xml version="1.0" encoding="utf-8"?>
<!-- Generator: Adobe Illustrator 21.1.0, SVG Export Plug-In . SVG Version: 6.00 Build 0)  -->
<svg version="1.1" id="cnt" xmlns="http://www.w3.org/2000/svg" xmlns:xlink="http://www.w3.org/1999/xlink" x="0px" y="0px"
	 viewBox="0 0 21.6 23" style="enable-background:new 0 0 21.6 23;" xml:space="preserve">
<style type="text/css">
	.st0{fill:#3D43C6;}
</style>
<title>通博_slot_內頁</title>
<path class="st0" d="M21.6,21.2l-7.1-7.9c2.9-3.5,2.3-8.7-1.2-11.5S4.7-0.5,1.9,3S-0.5,11.6,3,14.5c1.3,1.1,3,1.7,4.7,1.8h0.4
	c1.6,0,3.1-0.5,4.4-1.3l7.1,8L21.6,21.2z M7.9,13.8C4.8,13.6,2.4,11,2.6,7.9s2.8-5.5,5.9-5.3s5.5,2.8,5.3,5.9
	c-0.1,1.5-0.7,2.9-1.9,3.9C10.8,13.3,9.4,13.9,7.9,13.8z"/>
</svg>
