<svg id="圖層_1" data-name="圖層 1" xmlns="http://www.w3.org/2000/svg" viewBox="0 0 17.45 21.37"><defs><style>.cls-1{fill:#b3b3b3;}</style></defs><title>0</title><path class="cls-1" d="M.61,21.37a.6.6,0,0,1-.45-.18A.59.59,0,0,1,0,20.76a10.15,10.15,0,0,1,1.24-4.7,9.34,9.34,0,0,1,2.89-3.19,8.36,8.36,0,0,1,2.4-1.12L7,11.63l-.41-.22A5,5,0,0,1,4.51,9.47l0-.1H3.36A1.44,1.44,0,0,1,1.92,7.94V6.37a1.42,1.42,0,0,1,.5-1.08l.05,0V5.18A6.28,6.28,0,0,1,8.73,0,6.28,6.28,0,0,1,15,5.17v0l0,0a1.43,1.43,0,0,1,.39,1V7.82A1.44,1.44,0,0,1,14,9.25h-.91l-.05.1a4.92,4.92,0,0,1-2.08,2.06l-.39.2.61.21.43.15a8.52,8.52,0,0,1,3.08,2,9.62,9.62,0,0,1,2.53,4.64,9,9,0,0,1,.26,2.12.59.59,0,0,1-.16.46.63.63,0,0,1-.45.17ZM12.4,17.18a.34.34,0,0,1,.34.32l.49,2.71h3s0-.42,0-.48a8.91,8.91,0,0,0-1.62-4,7.88,7.88,0,0,0-1.94-1.88,7.24,7.24,0,0,0-1-.57,6.62,6.62,0,0,0-3.79-.61,7.29,7.29,0,0,0-4.74,2.69,8.53,8.53,0,0,0-1.85,4c0,.15-.05.3-.07.45l-.06.42H4.25l.34-1.9c0-.29.1-.58.16-.87a.33.33,0,0,1,.33-.26c.26.05.38.23.35.41L5,20.21h7.54l-.35-2c0-.2-.08-.41-.11-.62a.34.34,0,0,1,.28-.41ZM8.74,3.3A3.73,3.73,0,0,0,6.08,9.65a3.68,3.68,0,0,0,2.63,1.12A3.75,3.75,0,0,0,11.35,9.7l-.19-.31a7.17,7.17,0,0,1-2,.34.48.48,0,0,1-.49-.48.47.47,0,0,1,.47-.49,5.23,5.23,0,0,0,3.21-1.07l.05,0,0-.07A3.67,3.67,0,0,0,8.76,3.3ZM3.36,5.9a.47.47,0,0,0-.47.47V7.94a.47.47,0,0,0,.47.46h.29V5.9ZM13.69,8.28H14a.47.47,0,0,0,.47-.46V6.25A.47.47,0,0,0,14,5.78h-.28ZM8.73,1A5.35,5.35,0,0,0,3.58,4.69l-.07.24h.83l0-.1A4.88,4.88,0,0,1,8.76,2.15h.11A4.88,4.88,0,0,1,13,4.71l.05.1h.84l-.08-.25A5.38,5.38,0,0,0,8.73,1Z"/></svg>