<?xml version="1.0" encoding="utf-8"?>
<!-- Generator: Adobe Illustrator 24.1.3, SVG Export Plug-In . SVG Version: 6.00 Build 0)  -->
<svg version="1.1" id="圖層_1" xmlns="http://www.w3.org/2000/svg" xmlns:xlink="http://www.w3.org/1999/xlink" x="0px" y="0px"
	 viewBox="0 0 26 26" style="enable-background:new 0 0 26 26;" xml:space="preserve">
<style type="text/css">
	.st0{fill:#FDA92E;}
	.st1{fill:#BD5600;}
	.st2{fill:#F77E00;}
	.st3{fill:#F37E00;}
	.st4{fill:#FFE065;}
	.st5{fill:#00A9FF;}
	.st6{fill:none;stroke:#FFFFFF;stroke-miterlimit:10;}
	.st7{fill:#FFCE00;}
	.st8{fill:#FDBA12;}
	.st9{fill:#555A66;}
	.st10{fill:#333940;}
	.st11{fill:#FF432E;}
	.st12{fill:#E9EDF5;}
	.st13{fill:#FF6C52;}
	.st14{fill:#FFFFFF;}
	.st15{fill:#82BAFF;}
	.st16{fill:#549CFF;}
</style>
<g>
	<g>
		<g>
			<g>
				<g>
					<g>
						<g>
							<g>
								<g>
									<circle class="st7" cx="13" cy="13" r="13"/>
								</g>
							</g>
						</g>
					</g>
				</g>
			</g>
		</g>
	</g>
	<path class="st8" d="M26,13c0-1-0.1-2-0.3-2.9l-4.8-4.6l-15.7,16l4.1,3.9c1.2,0.4,2.4,0.5,3.7,0.5C20.2,26,26,20.2,26,13z"/>
	<g>
		<g>
			<path class="st9" d="M5.1,9.4h15.7v12.2H5.1V9.4z"/>
		</g>
		<g>
			<path class="st10" d="M12.8,9.4h8.1v12.2h-8.1V9.4z"/>
		</g>
		<g>
			<path class="st11" d="M19.3,10.9c-0.9,0-1.6-0.7-1.6-1.6V5.5h3.1v3.8C20.9,10.2,20.2,10.9,19.3,10.9z"/>
		</g>
		<g>
			<path class="st12" d="M16.1,10.9c-0.9,0-1.6-0.7-1.6-1.6V5.5h3.1v3.8C17.7,10.2,17,10.9,16.1,10.9z"/>
		</g>
		<g>
			<path class="st13" d="M13,10.9c-0.9,0-1.6-0.7-1.6-1.6V5.5h3.1v3.8C14.6,10.2,13.9,10.9,13,10.9L13,10.9z"/>
		</g>
		<g>
			<path class="st11" d="M12.8,5.5v5.3c0.1,0,0.2,0,0.2,0c0.9,0,1.6-0.7,1.6-1.6V5.5L12.8,5.5z"/>
		</g>
		<g>
			<path class="st14" d="M9.9,10.9c-0.9,0-1.6-0.7-1.6-1.6V5.5h3.1v3.8C11.4,10.2,10.7,10.9,9.9,10.9z"/>
		</g>
		<g>
			<path class="st13" d="M6.7,10.9c-0.9,0-1.6-0.7-1.6-1.6V5.5h3.1v3.8C8.3,10.2,7.6,10.9,6.7,10.9L6.7,10.9z"/>
		</g>
		<g>
			<path class="st15" d="M6.7,12.7h7.9v5H6.7V12.7z"/>
		</g>
		<g>
			<path class="st16" d="M12.8,12.7h1.8v5h-1.8L12.8,12.7z"/>
		</g>
		<g>
			<path class="st16" d="M15.4,12.7h4v8.8h-4V12.7z"/>
		</g>
	</g>
</g>
</svg>
