<svg id="圖層_1" data-name="圖層 1" xmlns="http://www.w3.org/2000/svg" viewBox="0 0 25.46 14.22"><defs><style>.cls-1{fill:#b3b3b3;}</style></defs><title>0</title><path class="cls-1" d="M20.3,14.22H2.71a3.34,3.34,0,0,1-.78-.12L1.69,14l-.5-.25C1,13.6.81,13.45.64,13.26l-.23-.32L.2,12.52A3.42,3.42,0,0,1,0,11.74V10.17c0-.24,0-.49,0-.73V4.78l0-.33a.69.69,0,0,0,.05-.28L.11,4c.07-.06,0-.14.07-.21A2.72,2.72,0,0,1,1.81,2.23l.09,0a3.6,3.6,0,0,1,.81-.12H20.13a2.72,2.72,0,0,1,2.73,2.32,2.31,2.31,0,0,1,0,.37v6.77c0,.07,0,.14,0,.21a3.78,3.78,0,0,1-.17.74v0a3.46,3.46,0,0,1-.45.76l-.25.25a2.78,2.78,0,0,1-1.24.64l-.2,0-.21,0Zm-17-.79h.06a1.84,1.84,0,0,0,.47,0h6.29a.65.65,0,0,0,.24,0,1.82,1.82,0,0,0,.33,0h1.94c1.3,0,2.59,0,3.89,0,.35,0,.71,0,1.06,0a0,0,0,0,0,0,0h2.5a1.94,1.94,0,0,0,2-1.94c0-2.25,0-4.5,0-6.75A1.9,1.9,0,0,0,21,3.05a2.14,2.14,0,0,0-1-.2H2.71A1.65,1.65,0,0,0,1.9,3a1,1,0,0,0-.29.17,1.35,1.35,0,0,0-.47.48A.84.84,0,0,0,1,4a1.63,1.63,0,0,0-.16.78V11c0,.23,0,.45,0,.67v.12a1.57,1.57,0,0,0,.26.76c0,.07.08.06.08.12a1.78,1.78,0,0,0,.77.64.21.21,0,0,0,.12.05,1.56,1.56,0,0,0,.67.12,2,2,0,0,0,.49,0h.12Z"/><path class="cls-1" d="M22.77,11a.67.67,0,0,1-.66-.74c0-1.36,0-2.71,0-4.07a.66.66,0,0,1,.47-.65l.13,0c.18,0,.18,0,.19.16s0,1.86,0,1.93a1,1,0,0,0,.63.86.8.8,0,0,0,.79-.15A.71.71,0,0,0,24.58,8a.36.36,0,0,0,.07-.26.49.49,0,0,0,0-.12c0-.66,0-1.33,0-2,0-.07,0-.1.09-.09a1.2,1.2,0,0,1,.33.05l.16.11a.73.73,0,0,1,.22.54,1.47,1.47,0,0,0,0,.21v3.88a.67.67,0,0,1-.39.62,1.25,1.25,0,0,1-.58.06H22.77Z"/><path class="cls-1" d="M22.35,1.74a1.82,1.82,0,0,1,0-.77,1.54,1.54,0,0,1,.69-.8,2.74,2.74,0,0,1,.4-.15,1.8,1.8,0,0,1,.83.07l.21.11A1.51,1.51,0,0,1,25,.66s0,0,0,0a1.3,1.3,0,0,0,.1.25,1.64,1.64,0,0,1,.08.79,3.12,3.12,0,0,1-.15.43l-.22.3a1.59,1.59,0,0,1-.57.38,1.55,1.55,0,0,1-.8.06,1.62,1.62,0,0,1-.71-.37l-.07-.07A1.65,1.65,0,0,1,22.35,1.74Z"/><path class="cls-1" d="M23.16,4.65V3.21s.06,0,.09,0a1.22,1.22,0,0,0,.26.06,1.48,1.48,0,0,0,.83-.08s.07,0,.07,0V7.39a1.05,1.05,0,0,1-.1.58l-.1.13a.68.68,0,0,1-.67.11.78.78,0,0,1-.33-.32,1.58,1.58,0,0,1-.05-.38Z"/><path class="cls-1" d="M2,3.92a1.32,1.32,0,0,1,.74-.28c.77,0,1.54,0,2.31,0h15a2.19,2.19,0,0,1,.36,0,1.18,1.18,0,0,1,.89,1,1.55,1.55,0,0,1,0,.22v6.58a1.14,1.14,0,0,1-1.19,1.2H18.63a1.5,1.5,0,0,0-.3,0,.06.06,0,0,0-.07,0H18a.14.14,0,0,0-.11,0,.2.2,0,0,0-.17,0h-15a1.16,1.16,0,0,1-1.11-.91c0-.25,0-.51,0-.76s0-.52,0-.79,0-.5,0-.75a.48.48,0,0,0,0-.17,1.77,1.77,0,0,0,0-.4.09.09,0,0,0,0-.1.34.34,0,0,0,0-.1v0c0-.25,0-.49,0-.74a.33.33,0,0,0,0-.14,3.88,3.88,0,0,0,0-.59v0c0-.27,0-.53,0-.79a.06.06,0,0,0,0-.06,3.84,3.84,0,0,0,0-.48.33.33,0,0,0,0-.14v0a.08.08,0,0,0,0-.07c0-.25,0-.5,0-.76A1.27,1.27,0,0,1,1.85,4ZM2.82,6.3a0,0,0,0,0,0,0c0,.25,0,.51,0,.76s0,.41,0,.61v0a.17.17,0,0,0,0,.1c0,.62,0,1.24,0,1.86,0,.17,0,.34,0,.51a1.09,1.09,0,0,0,0,.36.57.57,0,0,0,0,.13A1.22,1.22,0,0,0,4,11.7H7.08a1.21,1.21,0,0,0,1.25-1.25V5.9a1.53,1.53,0,0,0,0-.3,1.22,1.22,0,0,0-1.25-1H4a1.2,1.2,0,0,0-1.16.91l0,.1v.07a2.62,2.62,0,0,0,0,.56ZM20.08,8.14h0V6.47c0-.24,0-.48,0-.72a1,1,0,0,0-.28-.7,1.26,1.26,0,0,0-1-.42h-3l-.25,0a1.21,1.21,0,0,0-1,1.24q0,2.28,0,4.56a1.2,1.2,0,0,0,1.25,1.25h2.94a1.56,1.56,0,0,0,.31,0,1.22,1.22,0,0,0,1-1.23Zm-11.39,0h0v2.35a1.19,1.19,0,0,0,1.15,1.18c1.07,0,2.15,0,3.22,0A1.19,1.19,0,0,0,14.2,10.5V5.86a.91.91,0,0,0,0-.17A1.2,1.2,0,0,0,13,4.63h-3A1.21,1.21,0,0,0,8.69,5.89Z"/><path class="cls-1" d="M18.9,6.92A12,12,0,0,0,18.21,8a2.56,2.56,0,0,0-.3.65.09.09,0,0,0,0,.07,4.55,4.55,0,0,0-.25,1.79c0,.11,0,.13-.12.13h-.87c-.05,0-.09,0-.09-.07a4.16,4.16,0,0,1,.21-1.75,4.47,4.47,0,0,1,.8-1.21l.77-.85a.08.08,0,0,0,0-.06,1.94,1.94,0,0,1-1,.09.08.08,0,0,0-.08,0,2.67,2.67,0,0,0-.8-.11.62.62,0,0,0-.57.46,2.13,2.13,0,0,0-.09.71c0,.1,0,.11,0,.11h-.48c-.06,0-.08,0-.08-.08V5.79c0-.06,0-.08.07-.07h.44c.06,0,.08,0,.08.07s0,.3,0,.45.05,0,.06,0a1.22,1.22,0,0,1,1.38-.49,5.67,5.67,0,0,1,.66.22l.38.11a.44.44,0,0,0,.54-.24A.13.13,0,0,1,19,5.73h.33c.07,0,.08,0,.07.09a2.64,2.64,0,0,1-.35.85L19,6.85A.12.12,0,0,0,18.9,6.92Z"/><path class="cls-1" d="M9.37,5.94c0-.22,0-.23.22-.22s.28-.06.35,0,0,.23,0,.35v.09s0,.05,0,.08v0l0,0a1.25,1.25,0,0,1,1.44-.49c.27.07.53.19.8.27l.23.06a.43.43,0,0,0,.5-.24.13.13,0,0,1,.15-.09h.29c.11,0,.12,0,.1.12a3,3,0,0,1-.15.45,6.83,6.83,0,0,1-.69,1.13,5,5,0,0,0-.83,1.84,5.14,5.14,0,0,0-.08,1.24c0,.08,0,.11-.11.11h-.89s-.09,0-.09-.07a8.42,8.42,0,0,1,0-.87,3.09,3.09,0,0,1,.7-1.7c.33-.41.69-.8,1-1.19l.08-.09s-.06,0-.08,0a1.68,1.68,0,0,1-.74.09c-.29,0-.57-.11-.85-.14a.71.71,0,0,0-.75.35,1.89,1.89,0,0,0-.15.77,1.25,1.25,0,0,0,0,.29H9.37Zm3.14.72h0Z"/><path class="cls-1" d="M3.49,7.87V6.66c0-.28,0-.57,0-.85,0-.08,0-.1.1-.09H4c.08,0,.11,0,.1.09v.43s0,0,0,0a1.23,1.23,0,0,1,1.38-.49c.3.07.58.2.88.29a.8.8,0,0,0,.38,0A.23.23,0,0,0,6.94,6c.08,0,.1-.12.14-.18a.13.13,0,0,1,.12-.08h.37c.06,0,.08,0,.07.07a2.78,2.78,0,0,1-.25.68c-.24.5-.59.92-.87,1.39a4.5,4.5,0,0,0-.64,2.63c0,.09,0,.12-.11.12H4.89c-.07,0-.1,0-.1-.1,0-.33,0-.66,0-1A2.23,2.23,0,0,1,5,8.67a4.72,4.72,0,0,1,.6-.88c.28-.34.59-.66.88-1a.23.23,0,0,0,.08-.11s-.08,0-.12,0a1.69,1.69,0,0,1-.8.08,3.4,3.4,0,0,1-.46-.09l-.33-.06a.69.69,0,0,0-.78.57A3.38,3.38,0,0,0,4,7.84c0,.08,0,.1-.1.1H3.57S3.49,7.93,3.49,7.87Z"/></svg>