<svg id="圖層_1" data-name="圖層 1" xmlns="http://www.w3.org/2000/svg" viewBox="0 0 22.58 22.57"><defs><style>.cls-1{fill:#b3b3b3;}</style></defs><title>0</title><rect class="cls-1" x="-0.21" y="18.66" width="7.23" height="1.13" rx="0.35" ry="0.35" transform="translate(-13.26 9.05) rotate(-48.53)"/><rect class="cls-1" x="-0.68" y="16.51" width="5.66" height="1.13" rx="0.35" ry="0.35" transform="translate(-12.07 7.38) rotate(-48.53)"/><rect class="cls-1" x="2.88" y="19.65" width="5.66" height="1.13" rx="0.35" ry="0.35" transform="translate(-13.22 11.11) rotate(-48.53)"/><path class="cls-1" d="M12.46,0A10.12,10.12,0,1,0,22.58,10.16,10.12,10.12,0,0,0,12.46,0Zm5.38,3.78a1.43,1.43,0,0,1,1.52.84,8.07,8.07,0,0,1,1.61,3,.71.71,0,0,1-.1.6c-.31.53-.61,1.06-.91,1.59H15.91L14.49,7.27l1.84-3.5A9.52,9.52,0,0,0,17.84,3.78ZM9.17,3.23c.27-.47.54-.94.79-1.42a.59.59,0,0,1,.46-.31,9.31,9.31,0,0,1,4.07,0c.42.09.52.42.68.72s.47.82.7,1.23L14,7c-1-.06-2.09,0-3.14,0L9,3.41ZM4,7.56A9,9,0,0,1,6,4.09a.81.81,0,0,1,.68-.3c.64,0,1.29,0,1.93,0l1.82,3.52L9,9.84H5L4.06,8.25A.76.76,0,0,1,4,7.56Zm2.68,8.89A.8.8,0,0,1,6,16.16a9.06,9.06,0,0,1-2-3.48A.76.76,0,0,1,4.06,12L5,10.4H9L10.45,13,8.54,16.47C7.91,16.46,7.29,16.44,6.66,16.45Zm8.3,2a.5.5,0,0,1-.37.26,8.73,8.73,0,0,1-4.22,0,.54.54,0,0,1-.41-.29c-.28-.52-.58-1-.87-1.56L9,16.77,11,13.26l3,0,1.94,3.47Zm6-5.77a9.17,9.17,0,0,1-2,3.51.8.8,0,0,1-.65.26l-1.87,0-2-3.5c.5-.85,1-1.71,1.48-2.57H20c.29.51.57,1,.88,1.54A.87.87,0,0,1,20.94,12.68Z"/></svg>