<?xml version="1.0" encoding="utf-8"?>
<!-- Generator: Adobe Illustrator 24.1.3, SVG Export Plug-In . SVG Version: 6.00 Build 0)  -->
<svg version="1.1" id="圖層_1" xmlns="http://www.w3.org/2000/svg" xmlns:xlink="http://www.w3.org/1999/xlink" x="0px" y="0px"
	 viewBox="0 0 38 34" style="enable-background:new 0 0 38 34;" xml:space="preserve">
<style type="text/css">
	.st0{fill:url(#SVGID_1_);}
	.st1{fill:url(#SVGID_2_);}
</style>
<g>
	
		<linearGradient id="SVGID_1_" gradientUnits="userSpaceOnUse" x1="18.98" y1="4.46" x2="18.98" y2="33.54" gradientTransform="matrix(1 0 0 -1 0 36)">
		<stop  offset="0" style="stop-color:#7C4BFF"/>
		<stop  offset="1" style="stop-color:#2E7BFF"/>
	</linearGradient>
	<path class="st0" d="M27.8,2.5H10.2C8.4,2.5,7,3.9,7,5.7v22.7c0,1.8,1.4,3.2,3.2,3.2h17.5c1.8,0,3.2-1.4,3.2-3.2V5.7
		C31,3.9,29.5,2.5,27.8,2.5z M11.3,8h15.4c0.5,0,0.9,0.4,0.9,0.9c0,0.5-0.4,0.9-0.9,0.9H11.3c-0.5,0-0.9-0.4-0.9-0.9
		C10.4,8.4,10.8,8,11.3,8z M11.3,15.9h15.4c0.5,0,0.9,0.4,0.9,0.9c0,0.5-0.4,0.9-0.9,0.9H11.3c-0.5,0-0.9-0.4-0.9-0.9
		C10.4,16.3,10.8,15.9,11.3,15.9z M18.1,25.6h-6.8c-0.5,0-0.9-0.4-0.9-0.9c0-0.5,0.4-0.9,0.9-0.9h6.8c0.5,0,0.9,0.4,0.9,0.9
		C19,25.2,18.6,25.6,18.1,25.6z M29.3,26.2c-0.2,0.9-0.5,1.7-1.1,2.3c-1.4,1.5-3.5,1.8-5.3,0.9c-1.7-1-2.5-3-2-4.8
		c0.5-2,2.3-3.3,4.3-3.2c2,0.1,3.6,1.5,4.1,3.5c0,0.1,0.1,0.2,0.1,0.3C29.3,25.5,29.3,25.9,29.3,26.2z"/>
	<linearGradient id="SVGID_2_" gradientUnits="userSpaceOnUse" x1="25.0235" y1="24.3171" x2="28.22" y2="24.3171">
		<stop  offset="0" style="stop-color:#7C4BFF"/>
		<stop  offset="1" style="stop-color:#2E7BFF"/>
	</linearGradient>
	<path class="st1" d="M27.5,26c-0.8,0-1.6,0-2.5,0c0-1,0-1.9,0-2.8c0-0.4,0.2-0.6,0.6-0.6c0.4,0,0.6,0.3,0.7,0.6c0,0.5,0,0.9,0,1.5
		c0.4,0,0.8,0,1.1,0c0.4,0,0.7,0.3,0.7,0.7C28.2,25.8,27.9,26,27.5,26z"/>
</g>
</svg>
