<?xml version="1.0" encoding="utf-8"?>
<!-- Generator: Adobe Illustrator 21.1.0, SVG Export Plug-In . SVG Version: 6.00 Build 0)  -->
<svg version="1.1" id="圖層_1" xmlns="http://www.w3.org/2000/svg" xmlns:xlink="http://www.w3.org/1999/xlink" x="0px" y="0px"
	 viewBox="0 0 41.9 41.9" style="enable-background:new 0 0 41.9 41.9;" xml:space="preserve">
<style type="text/css">
	.st0{fill:#4B51E6;}
</style>
<path id="形狀_514" class="st0" d="M1,16.8c0.4-0.8,0.9-1.1,1.5-0.9c0.6,0.2,0.9,0.7,1,1.6c0.1,4.3,3.5,8.1,7.7,8.6
	c0.4,0,0.7,0.1,1.1,0.1c3.8,0,7.7,0,11.5,0h0.4v-0.5c0-1.6,0-3.3,0-4.9c0-0.6,0.2-1.1,0.7-1.4c0.6-0.3,1.1-0.1,1.5,0.4
	c2.9,2.9,5.8,5.8,8.8,8.6c0.8,0.8,0.8,1.5,0,2.2c-2.9,2.9-5.8,5.7-8.8,8.6c-0.3,0.3-0.7,0.5-1.1,0.5c-0.7-0.1-1.2-0.6-1.1-1.3
	c0-1.7,0-3.3,0-5v-0.5h-0.5c-3.4,0-6.9,0-10.3,0c-6-0.1-11.2-4.7-12.2-10.8c-0.1-0.5-0.1-1-0.2-1.5L1,16.8L1,16.8z M40.8,25.1
	C40.8,25.1,40.8,25.1,40.8,25.1c-0.4,0.8-0.9,1.1-1.5,0.9c-0.6-0.1-1-0.7-1-1.5c-0.1-4.7-3.9-8.7-8.5-8.7c-4,0-8,0-11.9,0
	c-0.1,0-0.2,0-0.3,0v0.4c0,1.6,0,3.3,0,4.9c0,0.6-0.2,1.1-0.8,1.4c-0.6,0.3-1.1,0.1-1.5-0.4c-2.9-2.9-5.8-5.8-8.8-8.6
	c-0.8-0.8-0.8-1.5,0-2.2c2.9-2.9,5.9-5.8,8.8-8.7c0.3-0.3,0.7-0.5,1.1-0.5c0.7,0.1,1.1,0.6,1.1,1.4c0,1.7,0,3.3,0,5V9h0.5
	c3.4,0,6.8,0,10.3,0c6,0.1,11.2,4.8,12.2,10.8c0.1,0.5,0.1,1,0.2,1.5L40.8,25.1L40.8,25.1z"/>
</svg>
