<?xml version="1.0" encoding="utf-8"?>
<!-- Generator: Adobe Illustrator 21.1.0, SVG Export Plug-In . SVG Version: 6.00 Build 0)  -->
<svg version="1.1" id="圖層_1" xmlns="http://www.w3.org/2000/svg" xmlns:xlink="http://www.w3.org/1999/xlink" x="0px" y="0px"
	 viewBox="0 0 13 12.1" style="enable-background:new 0 0 13 12.1;" xml:space="preserve">
<style type="text/css">
	.st0{fill:#008599;}
</style>
<g>
	<path class="st0" d="M6.5,7C6.4,7,6.2,6.9,6.2,6.8l-6-6C0,0.6,0,0.3,0.2,0.1s0.5-0.2,0.7,0l5.6,5.7l5.6-5.7c0.2-0.2,0.5-0.2,0.7,0
		s0.2,0.5,0,0.7l-6,6C6.8,6.9,6.6,7,6.5,7z"/>
	<path class="st0" d="M6.5,12.1c-0.1,0-0.3-0.1-0.3-0.1l-6-6C0,5.8,0,5.5,0.2,5.3s0.5-0.2,0.7,0l5.7,5.6l5.6-5.7
		c0.2-0.2,0.5-0.2,0.7,0s0.2,0.5,0,0.7l-6,6C6.8,12.1,6.6,12.1,6.5,12.1z"/>
</g>
</svg>
