<svg xmlns="http://www.w3.org/2000/svg" viewBox="0 0 21.51 15"><defs><style>.cls-1{fill:#3d4cce;}</style></defs><title>slot_內頁</title><g id="home"><path class="cls-1" d="M14.15,6.56a.94.94,0,0,1,.95.92.95.95,0,1,1-1.89,0A1,1,0,0,1,14.15,6.56Z"/><path class="cls-1" d="M3,15A2.74,2.74,0,0,1,0,12V2.94A2.74,2.74,0,0,1,2.94,0H15.88A2.73,2.73,0,0,1,18.8,3v.76l1,0a2.06,2.06,0,0,1,1.72,1.9V8.52a2.71,2.71,0,0,1-.82,2,2.74,2.74,0,0,1-1.78.78h-.1v.83A2.72,2.72,0,0,1,15.89,15H3ZM15,13.33H16a1,1,0,0,0,1.14-.91,3.62,3.62,0,0,0,0-.74c0-.12,0-.46,0-.46H15.31l-.57,0A6.7,6.7,0,0,1,13.12,11a3.6,3.6,0,0,1-2.63-4A3.7,3.7,0,0,1,14.15,3.8h2.94l0-.25a2.5,2.5,0,0,0,0-.25,1.75,1.75,0,0,0-.3-1.3,1.78,1.78,0,0,0-1.3-.33H3.1c-1.05,0-1.42.37-1.43,1.4q0,4.44,0,8.88c0,1,.37,1.38,1.38,1.38H15Zm-.9-8.11a2.26,2.26,0,0,0-2.21,2,2.2,2.2,0,0,0,1.82,2.53c.52,0,2,.07,3.13.07h1.89a1.55,1.55,0,0,0,.9-.38,1.33,1.33,0,0,0,.38-.9V5.65a.64.64,0,0,0-.36-.41l-4.8,0Z"/></g></svg>