<?xml version="1.0" encoding="utf-8"?>
<!-- Generator: Adobe Illustrator 24.1.3, SVG Export Plug-In . SVG Version: 6.00 Build 0)  -->
<svg version="1.1" id="圖層_1" xmlns="http://www.w3.org/2000/svg" xmlns:xlink="http://www.w3.org/1999/xlink" x="0px" y="0px"
	 viewBox="0 0 38 34" style="enable-background:new 0 0 38 34;" xml:space="preserve">
<style type="text/css">
	.st0{fill:url(#SVGID_1_);}
	.st1{fill:url(#SVGID_2_);}
</style>
<g>
	<g>
		<g>
			
				<linearGradient id="SVGID_1_" gradientUnits="userSpaceOnUse" x1="18.975" y1="34.9996" x2="18.975" y2="10.6457" gradientTransform="matrix(1 0 0 -1 0 36)">
				<stop  offset="0" style="stop-color:#2E7BFF"/>
				<stop  offset="1" style="stop-color:#7C4BFF"/>
			</linearGradient>
			<path class="st0" d="M29.7,4.5H8.2c-2.4,0-4.4,2-4.4,4.4v16.3c0,2.4,2,4.4,4.4,4.4h21.5c2.4,0,4.4-2,4.4-4.4V8.9
				C34.1,6.5,32.1,4.5,29.7,4.5z M26,19.6c-1.4,0-2.6-1.2-2.6-2.6s1.2-2.6,2.6-2.6h6.8v5.2L26,19.6L26,19.6z"/>
		</g>
	</g>
	<g>
		<g>
			
				<linearGradient id="SVGID_2_" gradientUnits="userSpaceOnUse" x1="26.54" y1="34.9999" x2="26.54" y2="10.6455" gradientTransform="matrix(1 0 0 -1 0 36)">
				<stop  offset="0" style="stop-color:#2E7BFF"/>
				<stop  offset="1" style="stop-color:#7C4BFF"/>
			</linearGradient>
			<path class="st1" d="M27.1,16.1H26c-0.5,0-0.9,0.4-0.9,0.9c0,0.5,0.4,0.9,0.9,0.9h1.2c0.5,0,0.9-0.4,0.9-0.9
				C28,16.5,27.6,16.1,27.1,16.1z"/>
		</g>
	</g>
</g>
</svg>
