<?xml version="1.0" encoding="utf-8"?>
<!-- Generator: Adobe Illustrator 21.1.0, SVG Export Plug-In . SVG Version: 6.00 Build 0)  -->
<svg version="1.1" id="圖層_1" xmlns="http://www.w3.org/2000/svg" xmlns:xlink="http://www.w3.org/1999/xlink" x="0px" y="0px"
	 viewBox="0 0 41.9 41.9" style="enable-background:new 0 0 41.9 41.9;" xml:space="preserve">
<style type="text/css">
	.st0{fill:#4B51E6;}
</style>
<path id="形狀_513" class="st0" d="M24,29.8v-0.5c0-2.6,0-5.1,0-7.7c0-1.7-1.3-3.1-3-3.1c-1.7,0-3.1,1.3-3.1,2.9
	c0,2.6,0,5.3,0,7.9v0.5c-0.2,0-0.3,0-0.4,0c-3.5,0-6.9,0-10.4,0c-2.5,0-4.5-1.6-4.9-4c0-0.3-0.1-0.7-0.1-1c0-5.7,0-11.4,0-17.2
	c0-2.6,1.6-4.5,4-5c0.3,0,0.6-0.1,0.9-0.1c9.3,0,18.5,0,27.8,0c2.6,0,4.5,1.6,4.9,4.1c0,0.3,0.1,0.6,0.1,0.9c0,5.7,0,11.5,0,17.2
	c0,2.6-1.6,4.5-4.1,4.9c-0.3,0-0.6,0.1-0.9,0.1c-3.5,0-7,0-10.5,0C24.3,29.8,24.2,29.8,24,29.8z M37.1,11.4V7.1c0-0.1,0-0.1,0-0.2
	c-0.3-1.1-1.1-1.6-2.4-1.6c-9.2,0-18.4,0-27.7,0c-0.1,0-0.2,0-0.3,0c-1.1,0-2,1-2.1,2.1c0,1.3,0,2.6,0,3.8c0,0.1,0,0.1,0,0.2
	L37.1,11.4L37.1,11.4z M11.3,20.2c0.8,0,1.7,0,2.5,0c0.8,0,1.4-0.5,1.4-1.3c0-0.7-0.6-1.3-1.3-1.3c0,0-0.1,0-0.1,0
	c-1.7,0-3.4,0-5.1,0c-0.8,0-1.4,0.5-1.4,1.3c0,0.8,0.6,1.3,1.4,1.3C9.6,20.2,10.4,20.2,11.3,20.2L11.3,20.2z M10.4,24.6
	c0.6,0,1.2,0,1.7,0c0.7,0,1.3-0.6,1.3-1.3c0-0.7-0.6-1.3-1.3-1.3c-1.2,0-2.4,0-3.5,0c-0.7,0-1.3,0.6-1.3,1.3c0,0.7,0.6,1.3,1.3,1.3
	c0,0,0,0,0,0C9.2,24.6,9.8,24.6,10.4,24.6L10.4,24.6z M22.2,35.9c1-1,2-2,3-3c0.4-0.4,0.9-0.5,1.4-0.3c0.5,0.2,0.8,0.6,0.9,1.1
	c0,0.4-0.1,0.8-0.4,1.1c-1.7,1.7-3.5,3.5-5.2,5.2c-0.5,0.5-1.3,0.5-1.8,0.1C20,40,20,40,20,40c-1.7-1.7-3.5-3.5-5.2-5.2
	c-0.5-0.5-0.5-1.3,0-1.8c0,0,0,0,0,0c0.5-0.5,1.3-0.5,1.9,0c0,0,0,0,0,0c0.9,0.9,1.7,1.7,2.6,2.6c0.1,0.1,0.2,0.2,0.4,0.4v-0.5
	c0-4.5,0-9.1,0-13.6c0-0.2,0-0.3,0-0.5c0.1-0.7,0.8-1.2,1.5-1.1c0.6,0.1,1,0.6,1.1,1.2c0,0.1,0,0.3,0,0.4c0,4.5,0,9,0,13.5
	L22.2,35.9L22.2,35.9z"/>
</svg>
